<svg width="972" height="1149" viewBox="0 0 972 1149" fill="none" xmlns="http://www.w3.org/2000/svg">
<rect x="54.5106" y="8.5" width="818" height="1041" rx="37.5" fill="white" stroke="black" stroke-width="5"/>
<path opacity="0.3" d="M686.422 280.876C682.03 280.754 677.661 278.337 674.206 275.747C670.66 273.156 667.632 270.114 664.684 266.948C658.791 260.574 653.216 253.522 644.63 246.218C627.409 231.464 605.939 233.376 597.211 233.461C593.235 233.513 586.889 233.673 581.512 234.037C580.289 234.122 579.125 234.203 578.041 234.279C588.496 229.93 597.726 229.476 606.596 229.942C616.364 230.402 625.866 232.222 638.559 230.454C647.034 229.218 654.332 225.943 659.213 221.875C664.182 217.897 666.62 213.263 667.562 209.674C668.62 206.131 668.063 203.129 667.667 201.349C667.196 199.505 666.608 198.57 666.608 198.57C661.429 205.049 654.44 206.621 648.106 206.26C641.601 205.926 635.264 204.021 626.74 203.282C618.216 202.496 610.375 205.252 604.111 209.016C597.81 212.777 593.212 217.487 590.38 219.998C587.841 222.27 583.888 226.075 580.732 229.42C578.996 231.317 577.449 233.006 576.418 234.13C564.007 229.87 551.458 226.011 538.78 222.615C546.582 219.309 553.554 218.089 560.578 217.155C569.328 215.947 578.418 215.141 588.464 210.227C601.892 203.358 606.299 193.56 606.817 187.241C607.36 180.705 604.973 176.944 604.973 176.944C600.307 182.402 594.509 184.435 588.707 185.387C582.829 186.345 576.894 186.273 570.089 187.432C563.308 188.562 558.304 192.527 554.134 197.103C549.993 201.633 546.879 206.706 544.808 209.418C542.555 212.414 538.348 218.014 535.536 221.757C533.348 221.186 531.155 220.623 528.959 220.082C526.138 218.891 522.622 217.73 519.641 217.316C518.246 217.164 517.029 217.073 515.994 217.084C513.392 216.521 510.792 215.943 508.178 215.423C502.335 214.293 496.455 213.304 490.562 212.391C497.372 210.217 503.142 209.018 509.008 208.173C513.197 207.541 517.336 207.031 521.534 206.262C525.837 205.41 529.654 204.696 534.935 202.466C541.226 199.679 544.596 196.877 547.134 194.24C549.594 191.627 551.118 189.077 552.546 186.699C553.847 184.482 555.145 182.272 556.12 180.61C557.043 179.038 557.531 177.983 557.531 177.983C549.778 177.796 543.728 178.199 537.238 178.085C534.146 178.102 530.77 178.122 527.629 178.139C525.986 178.179 524.404 178.219 522.948 178.255C521.49 178.277 520.001 178.309 518.057 178.605C510.817 179.588 505.96 183.707 502.161 188.256C498.398 192.803 495.625 197.813 493.649 200.506C491.916 202.904 488.982 206.853 486.159 210.114C485.741 210.603 485.329 211.069 484.925 211.52C469.741 209.37 454.429 208.055 439.088 207.796C450.138 201.442 459.209 197.518 468.285 193.883C478.33 189.823 488.239 186.02 498.38 179.055C500.089 177.879 501.669 176.707 503.191 175.478C504.895 174.072 506.191 172.845 507.366 171.633C509.713 169.215 511.432 167.009 512.823 164.981C515.576 160.934 517.075 157.51 518.287 154.496C519.468 151.489 520.308 148.894 520.855 147.018C521.408 145.153 521.572 143.977 521.572 143.977C512.39 147.069 505.532 150.277 498.136 152.7C494.482 153.953 490.908 155.105 487.348 156.05C483.597 157.141 479.538 158.532 475.335 160.363C466.908 164.016 461.566 169.917 457.458 175.817C453.398 181.72 450.55 187.643 448.468 190.976C446.623 193.9 443.554 198.781 440.645 202.786C439.286 204.711 437.996 206.437 437.008 207.733C428.856 207.649 420.697 207.866 412.545 208.443C405.846 208.877 399.158 209.616 392.495 210.551C410.024 189.353 427.2 184.804 446.361 169.998C459.762 159.721 465.513 150.552 468.06 143.616C470.606 136.734 469.75 132.149 469.75 132.149C453.842 143.465 439.847 143.163 421.571 153.328C403.389 163.602 399.457 183.173 396.848 190.969C395.182 196.036 392.236 205.796 390.738 210.785C377.138 212.786 363.693 215.861 350.587 220.054C354.68 209.182 361.635 201.423 368.618 194.381C376.712 186.106 385.998 178.551 393.533 165.233C402.757 149.04 403.583 136.725 402.244 129.19C400.893 121.575 397.543 118.309 397.543 118.309C393.973 127.758 388.753 134.086 382.963 139.972C380.025 142.838 376.832 145.954 373.836 148.876C370.625 151.996 367.449 155.545 364.336 158.64C357.645 165.661 353.789 174.011 351.564 182.031C349.329 190.007 348.986 197.328 348.599 201.548C348.208 205.329 347.957 211.468 348.145 216.459C348.198 218.054 348.292 219.511 348.398 220.785C338.595 224.025 328.974 227.829 319.675 232.373C315.694 234.335 311.771 236.419 307.904 238.608C311.824 231.937 314.873 225.816 317.708 220.062C321.371 212.413 324.656 205.397 327.624 198.403C330.591 191.454 333.368 184.39 335.637 177.139C337.843 170.282 340.149 162.96 341.834 154.35C344.081 142.901 344.103 132.865 342.57 124.923C341.071 116.956 338.142 111.209 335.266 107.471C332.29 103.712 329.492 101.864 327.438 100.929C325.434 99.9879 324.268 99.8823 324.268 99.8823C328.601 111.201 326.71 121.28 323.669 130.318C320.541 139.529 315.907 148.194 311.57 160.32C307.13 173.043 307.183 183.447 307.301 192.873C307.537 202.199 308.443 210.329 308.305 215.334C308.233 219.758 307.855 227.102 306.666 233.523C306.245 235.958 305.725 238.243 305.242 240.147C296.036 245.536 287.216 251.597 279.007 258.443C275.33 261.489 271.765 264.66 268.311 267.949C268.462 267.653 268.618 267.357 268.766 267.061C271.796 260.952 274.441 254.983 276.608 248.775C278.869 242.572 280.778 236.132 282.099 229.03C283.448 221.923 284.293 214.161 283.875 205.277C283.52 196.437 281.18 187.776 277.869 180.741C274.506 173.558 270.289 167.789 265.988 163.1C257.308 153.734 248.514 148.742 243.386 145.73C238.812 142.982 231.161 139.249 224.733 137.351C218.273 135.318 213.451 135.149 213.451 135.149C222.15 138.673 229.598 145.401 235.129 152.272C240.737 159.242 244.882 166.648 247.997 174.155C254.404 189.387 256.215 203.666 256.847 222.369C257.491 247.107 256.574 261.313 256.548 271.015C256.432 274.931 256.445 278.076 256.465 280.442C252.785 284.779 249.325 289.341 246.166 294.2L246.159 294.215C245.447 295.323 245.771 296.799 246.878 297.509C247.987 298.218 249.46 297.894 250.169 296.784L250.286 296.604C252.608 292.975 255.174 289.458 257.902 286.041C258.414 285.979 258.943 285.914 259.419 285.856C260.422 285.911 261.368 285.963 262.263 286.013C264.114 286.071 266.012 286.305 267.942 286.738C269.85 287.138 271.674 287.416 273.534 288.014C280.902 290.063 287.623 292.997 294.079 296.195C307.018 302.61 318.987 310.147 334.858 316.944C355.997 326.044 370.851 327.194 379.934 325.95C389.117 324.607 392.574 321.236 392.574 321.236C367.961 313.418 358.111 299.389 334.688 285.952C311.198 272.229 286.498 276.156 276.488 277.899C272.575 278.446 266.603 279.72 261.736 281.436C267.857 274.389 274.685 267.835 281.832 261.86C283.371 260.558 284.937 259.284 286.521 258.034C291.192 256.463 296.311 256.182 301.234 257.047C308.827 258.244 315.857 261.319 322.411 265.128C329.123 268.96 334.913 273.354 342.648 278.313C349.508 282.631 356.469 287.213 364.642 292.015C386.28 305.015 402.878 309.036 412.939 308.807C418.017 308.75 421.52 307.879 423.761 307.02C425.992 306.18 426.956 305.409 426.956 305.409C413.63 300.501 404.709 293.335 396.185 285.701C387.621 278.012 379.504 269.483 366.922 260.531C363.775 258.303 360.531 256.353 357.294 254.714C355.583 253.845 354.259 253.2 352.877 252.587C351.388 251.895 349.919 251.255 348.368 250.625C342.224 248.094 335.88 246.335 330.017 245.427C318.128 243.584 308.415 245.313 303 246.663C302.837 246.697 302.651 246.748 302.481 246.787C308.628 242.897 314.976 239.318 321.477 236.059C327.822 232.905 334.333 230.113 340.947 227.579C354.704 230.173 365.501 237.02 374.925 244.111C386.159 252.578 395.971 262.33 411.077 271.663C419.743 277.02 428.17 281.716 435.553 284.179C442.97 286.742 449.342 287.438 454.166 286.955C459.022 286.465 462.17 285.001 463.991 283.672C465.811 282.345 466.416 281.361 466.416 281.361C460.593 280.668 455.588 278.149 451.394 275.177C447.169 272.186 443.612 268.715 440.15 265.042C436.678 261.36 433.337 257.443 429.305 253.327C427.355 251.291 424.815 249.089 422.8 247.179C420.739 245.263 418.47 243.219 415.992 241.131C406.138 232.725 395.006 227.929 385.005 225.574C375.011 223.166 366.371 223.317 361.336 223.275C358.933 223.194 355.737 223.287 352.409 223.523C367.155 218.738 382.383 215.408 397.792 213.426C403.406 213.43 409.342 215.918 414.179 219.391C420.015 223.64 424.742 228.914 428.903 234.617C431.006 237.443 432.972 240.428 435.027 243.506L438.35 248.393C439.497 249.982 440.64 251.561 441.765 253.113C446.342 259.363 451.439 265.928 458.159 272.548C467.064 281.372 476.386 287.066 484.554 289.967C492.77 292.918 499.731 292.961 504.576 292.174C507.066 291.645 509.05 290.987 510.633 290.309C512.239 289.504 513.436 288.698 514.328 287.998C516.104 286.591 516.71 285.585 516.71 285.585C504.035 284.707 495.496 278.103 489.069 270.7C482.497 263.132 477.482 254.418 469.834 243.722C466.056 238.393 461.601 233.591 457.391 229.882C453.277 226.124 448.402 222.34 443.768 219.635C435.492 214.698 427.656 212.478 422.427 211.323C435.662 210.737 448.925 211.035 462.15 212.056C471.156 217.416 476.413 225.515 480.412 233.695C485.112 243.371 489.461 255.137 499.292 266.216C505.822 273.605 512.598 278.116 518.445 280.656C524.316 283.214 529.295 283.885 533.163 283.805C536.644 283.698 539.215 282.998 541.061 282.268C542.224 283.568 543.436 284.738 544.689 285.745C549.474 289.682 554.343 291.179 558.011 291.298C561.713 291.453 564.331 290.459 566.009 289.549C567.682 288.641 568.451 287.844 568.451 287.844C561.342 284.433 558.723 278.059 558.016 272.009C557.265 265.877 557.858 259.124 556.556 250.875C555.724 243.373 551.305 235.947 546.033 230.949C543.634 228.595 541.095 226.734 538.724 225.231C546.486 227.262 554.202 229.471 561.873 231.843C568.499 238.001 571.106 245.753 572.804 253.435C574.79 261.987 575.722 271.426 581.932 282.041C586.107 289.007 591.246 293.709 596.061 296.156C600.738 298.818 605.152 299.287 608.426 299.261C615.246 298.815 618.529 295.854 618.529 295.854C612.055 291.961 608.889 286.347 607.095 280.632C605.296 274.794 604.971 268.837 603.336 261.924C601.759 255.022 597.334 249.474 592.161 245.126C588.699 242.2 585.004 240.045 581.996 238.45C583.727 239.05 585.46 239.638 587.187 240.254C595.148 243.916 601.694 248.28 607.805 252.873C617.468 260.15 626.066 268.104 638.183 275.748C654.238 285.933 667.354 288.443 675.979 287.088C680.249 286.415 683.143 284.911 684.635 283.367C686.108 281.904 686.415 280.874 686.415 280.874L686.422 280.876ZM526.502 263.096C522.459 256.328 519.517 249.119 515.146 240.76C512.968 236.565 510.351 233.01 507.405 229.853C504.427 226.63 501.013 223.732 497.535 221.384C492.743 218.112 487.961 216.039 484.134 214.629C484.297 214.569 484.471 214.496 484.634 214.436C492.338 215.474 500.014 216.714 507.647 218.134C510.917 218.759 514.172 219.441 517.424 220.14C519.346 221.792 520.996 223.908 522.222 226.132C524.412 230.055 525.623 234.348 526.464 238.706C527.311 243.09 527.766 247.557 528.531 252.433C528.945 254.923 529.355 257.373 530.154 260.306C530.931 263.176 531.683 265.487 532.777 268.315C533.599 270.441 534.553 272.457 535.593 274.368C531.8 270.965 528.928 267.126 526.5 263.095L526.502 263.096Z" fill="#D0D0D0"/>
<path opacity="0.3" d="M439.459 955.876C443.851 955.754 448.219 953.337 451.675 950.747C455.22 948.156 458.248 945.114 461.197 941.948C467.089 935.574 472.665 928.522 481.251 921.218C498.471 906.464 519.942 908.376 528.67 908.461C532.646 908.513 538.992 908.673 544.369 909.037C545.591 909.122 546.756 909.203 547.84 909.279C537.385 904.93 528.154 904.476 519.285 904.942C509.517 905.402 500.015 907.222 487.322 905.454C478.847 904.218 471.549 900.943 466.668 896.875C461.698 892.897 459.26 888.263 458.319 884.674C457.261 881.131 457.818 878.129 458.213 876.349C458.685 874.505 459.273 873.57 459.273 873.57C464.452 880.049 471.441 881.621 477.775 881.26C484.28 880.926 490.617 879.021 499.141 878.282C507.664 877.496 515.506 880.252 521.77 884.016C528.071 887.777 532.669 892.487 535.5 894.998C538.04 897.27 541.993 901.075 545.149 904.42C546.885 906.317 548.431 908.006 549.463 909.13C561.874 904.87 574.423 901.011 587.101 897.615C579.299 894.309 572.326 893.089 565.303 892.155C556.553 890.947 547.463 890.141 537.416 885.227C523.989 878.358 519.581 868.56 519.064 862.241C518.521 855.705 520.908 851.944 520.908 851.944C525.574 857.402 531.372 859.435 537.174 860.387C543.052 861.345 548.987 861.273 555.791 862.432C562.573 863.562 567.577 867.527 571.747 872.103C575.887 876.633 579.002 881.706 581.073 884.418C583.325 887.414 587.533 893.014 590.345 896.757C592.533 896.186 594.726 895.623 596.922 895.082C599.743 893.891 603.258 892.73 606.24 892.316C607.634 892.164 608.851 892.073 609.886 892.084C612.489 891.521 615.089 890.943 617.703 890.423C623.546 889.293 629.426 888.304 635.319 887.391C628.509 885.217 622.739 884.018 616.873 883.173C612.684 882.541 608.545 882.031 604.347 881.262C600.043 880.41 596.227 879.696 590.946 877.466C584.655 874.679 581.285 871.877 578.747 869.24C576.286 866.627 574.763 864.077 573.335 861.699C572.034 859.482 570.736 857.272 569.761 855.61C568.838 854.038 568.35 852.983 568.35 852.983C576.103 852.796 582.153 853.199 588.643 853.085C591.735 853.102 595.111 853.122 598.252 853.139C599.895 853.179 601.477 853.219 602.933 853.255C604.391 853.277 605.88 853.309 607.824 853.605C615.064 854.588 619.921 858.707 623.72 863.256C627.483 867.803 630.255 872.813 632.232 875.506C633.965 877.904 636.899 881.853 639.722 885.114C640.14 885.603 640.552 886.069 640.956 886.52C656.14 884.37 671.452 883.055 686.793 882.796C675.743 876.442 666.671 872.518 657.595 868.883C647.551 864.823 637.642 861.02 627.501 854.055C625.792 852.879 624.212 851.707 622.69 850.478C620.986 849.072 619.69 847.845 618.515 846.633C616.168 844.215 614.449 842.009 613.057 839.981C610.304 835.934 608.806 832.51 607.594 829.496C606.413 826.489 605.573 823.894 605.026 822.018C604.472 820.153 604.309 818.977 604.309 818.977C613.491 822.069 620.349 825.277 627.745 827.7C631.399 828.953 634.973 830.105 638.533 831.05C642.284 832.141 646.343 833.532 650.545 835.363C658.973 839.016 664.315 844.917 668.422 850.817C672.483 856.72 675.331 862.643 677.412 865.976C679.258 868.9 682.327 873.781 685.236 877.786C686.595 879.711 687.884 881.437 688.873 882.733C697.025 882.649 705.184 882.866 713.335 883.443C720.035 883.877 726.723 884.616 733.386 885.551C715.857 864.353 698.681 859.804 679.52 844.998C666.119 834.721 660.368 825.552 657.821 818.616C655.275 811.734 656.131 807.149 656.131 807.149C672.038 818.465 686.034 818.163 704.309 828.328C722.492 838.602 726.424 858.173 729.032 865.969C730.699 871.036 733.645 880.796 735.143 885.785C748.743 887.786 762.187 890.861 775.294 895.054C771.201 884.182 764.246 876.423 757.263 869.381C749.169 861.106 739.882 853.551 732.348 840.233C723.124 824.04 722.297 811.725 723.637 804.19C724.988 796.575 728.338 793.309 728.338 793.309C731.908 802.758 737.127 809.086 742.918 814.972C745.856 817.838 749.049 820.954 752.045 823.876C755.256 826.996 758.432 830.545 761.545 833.64C768.236 840.661 772.092 849.011 774.316 857.031C776.552 865.007 776.895 872.328 777.282 876.548C777.673 880.329 777.924 886.468 777.735 891.459C777.683 893.054 777.589 894.511 777.483 895.785C787.286 899.025 796.906 902.829 806.206 907.373C810.187 909.335 814.11 911.419 817.976 913.608C814.057 906.937 811.008 900.816 808.173 895.062C804.51 887.413 801.225 880.397 798.257 873.403C795.29 866.454 792.513 859.39 790.244 852.139C788.038 845.282 785.732 837.96 784.047 829.35C781.799 817.901 781.778 807.865 783.311 799.923C784.81 791.956 787.739 786.209 790.615 782.471C793.591 778.712 796.389 776.864 798.443 775.929C800.447 774.988 801.613 774.882 801.613 774.882C797.279 786.201 799.171 796.28 802.212 805.318C805.34 814.529 809.973 823.194 814.311 835.32C818.751 848.043 818.698 858.447 818.579 867.873C818.344 877.199 817.437 885.329 817.576 890.334C817.647 894.758 818.026 902.102 819.215 908.523C819.636 910.958 820.155 913.243 820.639 915.147C829.845 920.536 838.665 926.597 846.874 933.443C850.551 936.489 854.116 939.66 857.57 942.949C857.419 942.653 857.263 942.357 857.115 942.061C854.085 935.952 851.44 929.983 849.272 923.775C847.012 917.572 845.103 911.132 843.782 904.03C842.433 896.923 841.588 889.161 842.006 880.277C842.361 871.437 844.701 862.776 848.012 855.741C851.375 848.558 855.592 842.789 859.893 838.1C868.573 828.734 877.367 823.742 882.495 820.73C887.069 817.982 894.72 814.249 901.148 812.351C907.608 810.318 912.43 810.149 912.43 810.149C903.731 813.673 896.283 820.401 890.751 827.272C885.144 834.242 880.999 841.648 877.884 849.155C871.477 864.387 869.666 878.666 869.034 897.369C868.39 922.107 869.306 936.313 869.333 946.015C869.449 949.931 869.436 953.076 869.416 955.442C873.096 959.779 876.556 964.341 879.715 969.2L879.722 969.215C880.434 970.323 880.11 971.799 879.003 972.509C877.894 973.218 876.421 972.894 875.712 971.784L875.595 971.604C873.273 967.975 870.707 964.458 867.979 961.041C867.467 960.979 866.938 960.914 866.462 960.856C865.459 960.911 864.513 960.963 863.618 961.013C861.767 961.071 859.869 961.305 857.939 961.738C856.031 962.138 854.207 962.416 852.347 963.014C844.979 965.063 838.257 967.997 831.802 971.195C818.863 977.61 806.894 985.147 791.023 991.944C769.883 1001.04 755.03 1002.19 745.947 1000.95C736.764 999.607 733.306 996.236 733.306 996.236C757.919 988.418 767.77 974.389 791.193 960.952C814.683 947.229 839.383 951.156 849.393 952.899C853.306 953.446 859.278 954.72 864.145 956.436C858.024 949.389 851.196 942.835 844.049 936.86C842.509 935.558 840.944 934.284 839.359 933.034C834.689 931.463 829.57 931.182 824.647 932.047C817.054 933.244 810.024 936.319 803.469 940.128C796.757 943.96 790.968 948.354 783.233 953.313C776.372 957.631 769.412 962.213 761.239 967.015C739.601 980.015 723.003 984.036 712.942 983.807C707.864 983.75 704.361 982.879 702.12 982.02C699.889 981.18 698.925 980.409 698.925 980.409C712.251 975.501 721.172 968.335 729.695 960.701C738.26 953.012 746.377 944.483 758.958 935.531C762.106 933.303 765.35 931.353 768.586 929.714C770.298 928.845 771.622 928.2 773.004 927.587C774.493 926.895 775.962 926.255 777.513 925.625C783.656 923.094 790.001 921.335 795.864 920.427C807.753 918.584 817.466 920.313 822.881 921.663C823.044 921.697 823.23 921.748 823.4 921.787C817.253 917.897 810.905 914.318 804.404 911.059C798.059 907.905 791.548 905.113 784.934 902.579C771.177 905.173 760.38 912.02 750.956 919.111C739.722 927.578 729.91 937.33 714.804 946.663C706.138 952.02 697.711 956.716 690.328 959.179C682.911 961.742 676.539 962.438 671.715 961.955C666.859 961.465 663.711 960.001 661.89 958.672C660.069 957.345 659.464 956.361 659.464 956.361C665.288 955.668 670.293 953.149 674.487 950.177C678.712 947.186 682.269 943.715 685.731 940.042C689.203 936.36 692.544 932.443 696.576 928.327C698.526 926.291 701.066 924.089 703.081 922.179C705.142 920.263 707.411 918.219 709.889 916.131C719.743 907.725 730.875 902.929 740.876 900.574C750.87 898.166 759.51 898.317 764.544 898.275C766.948 898.194 770.143 898.287 773.472 898.523C758.726 893.738 743.498 890.408 728.089 888.426C722.475 888.43 716.539 890.918 711.702 894.391C705.866 898.64 701.139 903.914 696.978 909.617C694.875 912.443 692.909 915.428 690.854 918.506L687.531 923.393C686.383 924.982 685.241 926.561 684.116 928.113C679.539 934.363 674.442 940.928 667.722 947.548C658.817 956.372 649.495 962.066 641.327 964.967C633.111 967.918 626.15 967.961 621.305 967.174C618.815 966.645 616.83 965.987 615.248 965.309C613.642 964.504 612.445 963.698 611.553 962.998C609.777 961.591 609.17 960.585 609.17 960.585C621.845 959.707 630.385 953.103 636.812 945.7C643.384 938.132 648.399 929.418 656.047 918.722C659.824 913.393 664.28 908.591 668.489 904.882C672.604 901.124 677.478 897.34 682.113 894.635C690.388 889.698 698.225 887.478 703.454 886.323C690.219 885.737 676.956 886.035 663.731 887.056C654.725 892.416 649.468 900.515 645.469 908.695C640.769 918.371 636.42 930.137 626.589 941.216C620.059 948.605 613.283 953.116 607.436 955.656C601.564 958.214 596.585 958.885 592.718 958.805C589.237 958.698 586.666 957.998 584.819 957.268C583.657 958.568 582.445 959.738 581.191 960.745C576.406 964.682 571.538 966.179 567.87 966.298C564.168 966.453 561.55 965.459 559.872 964.549C558.199 963.641 557.43 962.844 557.43 962.844C564.538 959.433 567.157 953.059 567.865 947.009C568.616 940.877 568.023 934.124 569.325 925.875C570.157 918.373 574.576 910.947 579.848 905.949C582.247 903.595 584.786 901.734 587.157 900.231C579.395 902.262 571.679 904.471 564.008 906.843C557.381 913.001 554.775 920.753 553.076 928.435C551.091 936.987 550.159 946.426 543.949 957.041C539.774 964.007 534.635 968.709 529.82 971.156C525.142 973.818 520.729 974.287 517.455 974.261C510.635 973.815 507.352 970.854 507.352 970.854C513.826 966.961 516.991 961.347 518.786 955.632C520.585 949.794 520.909 943.837 522.545 936.924C524.122 930.022 528.547 924.474 533.72 920.126C537.182 917.2 540.876 915.045 543.885 913.45C542.153 914.05 540.42 914.638 538.694 915.254C530.732 918.916 524.187 923.28 518.076 927.873C508.413 935.15 499.815 943.104 487.698 950.748C471.643 960.933 458.526 963.443 449.902 962.088C445.632 961.415 442.737 959.911 441.246 958.367C439.773 956.904 439.466 955.874 439.466 955.874L439.459 955.876ZM599.379 938.096C603.422 931.328 606.364 924.119 610.735 915.76C612.913 911.565 615.53 908.01 618.475 904.853C621.454 901.63 624.868 898.732 628.346 896.384C633.138 893.112 637.92 891.039 641.747 889.629C641.584 889.569 641.41 889.496 641.247 889.436C633.543 890.474 625.867 891.714 618.234 893.134C614.964 893.759 611.709 894.441 608.457 895.14C606.535 896.792 604.885 898.908 603.659 901.132C601.469 905.055 600.258 909.348 599.416 913.706C598.57 918.09 598.115 922.557 597.35 927.433C596.936 929.923 596.526 932.373 595.727 935.306C594.95 938.176 594.198 940.487 593.104 943.315C592.282 945.441 591.327 947.457 590.288 949.368C594.081 945.965 596.953 942.126 599.381 938.095L599.379 938.096Z" fill="#D0D0D0"/>
<path opacity="0.3" d="M532.23 835.876C527.838 835.754 523.47 833.337 520.014 830.747C516.469 828.156 513.441 825.114 510.492 821.948C504.6 815.574 499.024 808.522 490.439 801.218C473.218 786.464 451.747 788.376 443.02 788.461C439.043 788.513 432.697 788.673 427.32 789.037C426.098 789.122 424.933 789.203 423.849 789.279C434.304 784.93 443.535 784.476 452.404 784.942C462.173 785.402 471.674 787.222 484.367 785.454C492.842 784.218 500.14 780.943 505.021 776.875C509.991 772.897 512.429 768.263 513.37 764.674C514.428 761.131 513.871 758.129 513.476 756.349C513.004 754.505 512.416 753.57 512.416 753.57C507.237 760.049 500.248 761.621 493.914 761.26C487.409 760.926 481.072 759.021 472.548 758.282C464.025 757.496 456.183 760.252 449.919 764.016C443.618 767.777 439.02 772.487 436.189 774.998C433.649 777.27 429.696 781.075 426.541 784.42C424.804 786.317 423.258 788.006 422.226 789.13C409.815 784.87 397.266 781.011 384.588 777.615C392.39 774.309 399.363 773.089 406.386 772.155C415.136 770.947 424.226 770.141 434.273 765.227C447.7 758.358 452.108 748.56 452.625 742.241C453.168 735.705 450.781 731.944 450.781 731.944C446.115 737.402 440.318 739.435 434.515 740.387C428.637 741.345 422.703 741.273 415.898 742.432C409.116 743.562 404.112 747.527 399.942 752.103C395.802 756.633 392.687 761.706 390.616 764.418C388.364 767.414 384.156 773.014 381.344 776.757C379.156 776.186 376.963 775.623 374.767 775.082C371.946 773.891 368.431 772.73 365.449 772.316C364.055 772.164 362.838 772.073 361.803 772.084C359.2 771.521 356.6 770.943 353.986 770.423C348.143 769.293 342.263 768.304 336.37 767.391C343.18 765.217 348.95 764.018 354.816 763.173C359.005 762.541 363.144 762.031 367.343 761.262C371.646 760.41 375.462 759.696 380.743 757.466C387.034 754.679 390.404 751.877 392.942 749.24C395.403 746.627 396.926 744.077 398.354 741.699C399.655 739.482 400.953 737.272 401.928 735.61C402.852 734.038 403.339 732.983 403.339 732.983C395.586 732.796 389.536 733.199 383.046 733.085C379.954 733.102 376.578 733.122 373.437 733.139C371.794 733.179 370.212 733.219 368.757 733.255C367.298 733.277 365.809 733.309 363.865 733.605C356.625 734.588 351.768 738.707 347.969 743.256C344.206 747.803 341.434 752.813 339.457 755.506C337.724 757.904 334.791 761.853 331.967 765.114C331.549 765.603 331.137 766.069 330.733 766.52C315.549 764.37 300.237 763.055 284.896 762.796C295.947 756.442 305.018 752.518 314.094 748.883C324.138 744.823 334.047 741.02 344.189 734.055C345.897 732.879 347.477 731.707 348.999 730.478C350.703 729.072 351.999 727.845 353.174 726.633C355.521 724.215 357.24 722.009 358.632 719.981C361.385 715.934 362.883 712.51 364.095 709.496C365.277 706.489 366.116 703.894 366.663 702.018C367.217 700.153 367.38 698.977 367.38 698.977C358.198 702.069 351.34 705.277 343.944 707.7C340.29 708.953 336.716 710.105 333.156 711.05C329.405 712.141 325.346 713.532 321.144 715.363C312.716 719.016 307.374 724.917 303.267 730.817C299.206 736.72 296.358 742.643 294.277 745.976C292.431 748.9 289.362 753.781 286.453 757.786C285.094 759.711 283.805 761.437 282.816 762.733C274.664 762.649 266.505 762.866 258.354 763.443C251.654 763.877 244.966 764.616 238.303 765.551C255.833 744.353 273.008 739.804 292.169 724.998C305.57 714.721 311.321 705.552 313.869 698.616C316.414 691.734 315.558 687.149 315.558 687.149C299.651 698.465 285.655 698.163 267.38 708.328C249.198 718.602 245.265 738.173 242.657 745.969C240.99 751.036 238.044 760.796 236.546 765.785C222.947 767.786 209.502 770.861 196.395 775.054C200.488 764.182 207.443 756.423 214.426 749.381C222.52 741.106 231.807 733.551 239.341 720.233C248.565 704.04 249.392 691.725 248.053 684.19C246.701 676.575 243.351 673.309 243.351 673.309C239.782 682.758 234.562 689.086 228.772 694.972C225.834 697.838 222.64 700.954 219.645 703.876C216.433 706.996 213.258 710.545 210.144 713.64C203.453 720.661 199.597 729.011 197.373 737.031C195.137 745.007 194.794 752.328 194.408 756.548C194.016 760.329 193.765 766.468 193.954 771.459C194.006 773.054 194.1 774.511 194.206 775.785C184.403 779.025 174.783 782.829 165.483 787.373C161.502 789.335 157.579 791.419 153.713 793.608C157.632 786.937 160.681 780.816 163.516 775.062C167.179 767.413 170.465 760.397 173.432 753.403C176.399 746.454 179.176 739.39 181.446 732.139C183.651 725.282 185.957 717.96 187.642 709.35C189.89 697.901 189.911 687.865 188.378 679.923C186.879 671.956 183.95 666.209 181.074 662.471C178.098 658.712 175.3 656.864 173.246 655.929C171.242 654.988 170.076 654.882 170.076 654.882C174.41 666.201 172.518 676.28 169.477 685.318C166.349 694.529 161.716 703.194 157.378 715.32C152.938 728.043 152.991 738.447 153.11 747.873C153.345 757.199 154.252 765.329 154.114 770.334C154.042 774.758 153.663 782.102 152.474 788.523C152.053 790.958 151.534 793.243 151.05 795.147C141.844 800.536 133.024 806.597 124.815 813.443C121.138 816.489 117.573 819.66 114.119 822.949C114.27 822.653 114.426 822.357 114.574 822.061C117.604 815.952 120.249 809.983 122.417 803.775C124.678 797.572 126.586 791.132 127.907 784.03C129.256 776.923 130.101 769.161 129.683 760.277C129.328 751.437 126.988 742.776 123.677 735.741C120.314 728.558 116.097 722.789 111.797 718.1C103.116 708.734 94.3218 703.742 89.1938 700.73C84.6202 697.982 76.9692 694.249 70.5415 692.351C64.081 690.318 59.2595 690.149 59.2595 690.149C67.9578 693.673 75.4058 700.401 80.9376 707.272C86.5448 714.242 90.6903 721.648 93.8056 729.155C100.212 744.387 102.023 758.666 102.656 777.369C103.299 802.107 102.383 816.313 102.356 826.015C102.24 829.931 102.253 833.076 102.273 835.442C98.5934 839.779 95.1329 844.341 91.9742 849.2L91.9668 849.215C91.2553 850.323 91.5794 851.799 92.6865 852.509C93.7947 853.218 95.268 852.894 95.9774 851.784L96.0939 851.604C98.4163 847.975 100.982 844.458 103.71 841.041C104.222 840.979 104.751 840.914 105.227 840.856C106.23 840.911 107.176 840.963 108.071 841.013C109.922 841.071 111.82 841.305 113.75 841.738C115.658 842.138 117.482 842.416 119.342 843.014C126.71 845.063 133.432 847.997 139.887 851.195C152.827 857.61 164.795 865.147 180.666 871.944C201.806 881.044 216.659 882.194 225.742 880.95C234.925 879.607 238.383 876.236 238.383 876.236C213.77 868.418 203.92 854.389 180.496 840.952C157.006 827.229 132.306 831.156 122.296 832.899C118.383 833.446 112.412 834.72 107.544 836.436C113.665 829.389 120.493 822.835 127.64 816.86C129.18 815.558 130.745 814.284 132.33 813.034C137 811.463 142.12 811.182 147.042 812.047C154.635 813.244 161.665 816.319 168.22 820.128C174.932 823.96 180.721 828.354 188.456 833.313C195.317 837.631 202.278 842.213 210.45 847.015C232.088 860.015 248.687 864.036 258.747 863.807C263.825 863.75 267.328 862.879 269.569 862.02C271.8 861.18 272.764 860.409 272.764 860.409C259.438 855.501 250.517 848.335 241.994 840.701C233.429 833.012 225.312 824.483 212.731 815.531C209.583 813.303 206.339 811.353 203.103 809.714C201.391 808.845 200.067 808.2 198.685 807.587C197.196 806.895 195.727 806.255 194.176 805.625C188.033 803.094 181.688 801.335 175.825 800.427C163.936 798.584 154.223 800.313 148.808 801.663C148.645 801.697 148.459 801.748 148.29 801.787C154.436 797.897 160.784 794.318 167.285 791.059C173.63 787.905 180.141 785.113 186.755 782.579C200.512 785.173 211.309 792.02 220.733 799.111C231.967 807.578 241.779 817.33 256.885 826.663C265.552 832.02 273.978 836.716 281.361 839.179C288.778 841.742 295.15 842.438 299.974 841.955C304.83 841.465 307.978 840.001 309.799 838.672C311.62 837.345 312.225 836.361 312.225 836.361C306.401 835.668 301.396 833.149 297.202 830.177C292.977 827.186 289.42 823.715 285.958 820.042C282.486 816.36 279.145 812.443 275.113 808.327C273.163 806.291 270.623 804.089 268.608 802.179C266.547 800.263 264.278 798.219 261.801 796.131C251.946 787.725 240.814 782.929 230.813 780.574C220.819 778.166 212.179 778.317 207.145 778.275C204.741 778.194 201.546 778.287 198.217 778.523C212.964 773.738 228.191 770.408 243.6 768.426C249.214 768.43 255.15 770.918 259.988 774.391C265.823 778.64 270.55 783.914 274.711 789.617C276.814 792.443 278.78 795.428 280.836 798.506L284.158 803.393C285.306 804.982 286.448 806.561 287.573 808.113C292.15 814.363 297.247 820.928 303.967 827.548C312.872 836.372 322.194 842.066 330.362 844.967C338.578 847.918 345.539 847.961 350.385 847.174C352.874 846.645 354.859 845.987 356.441 845.309C358.047 844.504 359.244 843.698 360.136 842.998C361.912 841.591 362.519 840.585 362.519 840.585C349.844 839.707 341.305 833.103 334.877 825.7C328.305 818.132 323.29 809.418 315.642 798.722C311.865 793.393 307.409 788.591 303.2 784.882C299.085 781.124 294.211 777.34 289.576 774.635C281.301 769.698 273.464 767.478 268.235 766.323C281.47 765.737 294.733 766.035 307.958 767.056C316.964 772.416 322.221 780.515 326.22 788.695C330.92 798.371 335.269 810.137 345.1 821.216C351.63 828.605 358.406 833.116 364.253 835.656C370.125 838.214 375.104 838.885 378.971 838.805C382.452 838.698 385.023 837.998 386.87 837.268C388.032 838.568 389.244 839.738 390.498 840.745C395.283 844.682 400.151 846.179 403.819 846.298C407.521 846.453 410.139 845.459 411.818 844.549C413.49 843.641 414.259 842.844 414.259 842.844C407.151 839.433 404.532 833.059 403.824 827.009C403.073 820.877 403.666 814.124 402.364 805.875C401.532 798.373 397.113 790.947 391.841 785.949C389.442 783.595 386.903 781.734 384.532 780.231C392.294 782.262 400.01 784.471 407.681 786.843C414.308 793.001 416.914 800.753 418.613 808.435C420.598 816.987 421.531 826.426 427.74 837.041C431.915 844.007 437.055 848.709 441.869 851.156C446.547 853.818 450.96 854.287 454.234 854.261C461.054 853.815 464.337 850.854 464.337 850.854C457.863 846.961 454.698 841.347 452.903 835.632C451.105 829.794 450.78 823.837 449.144 816.924C447.567 810.022 443.142 804.474 437.969 800.126C434.507 797.2 430.813 795.045 427.804 793.45C429.536 794.05 431.269 794.638 432.995 795.254C440.957 798.916 447.502 803.28 453.613 807.873C463.276 815.15 471.874 823.104 483.991 830.748C500.046 840.933 513.163 843.443 521.787 842.088C526.057 841.415 528.952 839.911 530.443 838.367C531.916 836.904 532.223 835.874 532.223 835.874L532.23 835.876ZM372.31 818.096C368.268 811.328 365.325 804.119 360.954 795.76C358.777 791.565 356.159 788.01 353.214 784.853C350.236 781.63 346.821 778.732 343.343 776.384C338.551 773.112 333.769 771.039 329.942 769.629C330.105 769.569 330.279 769.496 330.442 769.436C338.146 770.474 345.823 771.714 353.455 773.134C356.725 773.759 359.98 774.441 363.232 775.14C365.154 776.792 366.804 778.908 368.03 781.132C370.22 785.055 371.431 789.348 372.273 793.706C373.119 798.09 373.575 802.557 374.339 807.433C374.753 809.923 375.163 812.373 375.962 815.306C376.739 818.176 377.491 820.487 378.585 823.315C379.407 825.441 380.362 827.457 381.402 829.368C377.608 825.965 374.736 822.126 372.308 818.095L372.31 818.096Z" fill="#D0D0D0"/>
<path d="M494.36 314.044C491.739 314.751 488.719 314.099 486.207 313.184C483.642 312.284 481.303 311.025 478.989 309.679C474.353 306.962 469.785 303.791 463.39 301.002C450.542 295.349 438.185 300.283 433.038 301.884C430.694 302.62 426.969 303.838 423.855 305.007C423.148 305.274 422.473 305.529 421.846 305.765C427.247 301.346 432.627 299.441 437.958 298.142C443.82 296.682 449.768 296.07 456.961 292.776C461.751 290.542 465.48 287.318 467.634 284.05C469.856 280.82 470.463 277.653 470.373 275.369C470.36 273.089 469.489 271.418 468.935 270.438C468.323 269.433 467.808 268.986 467.808 268.986C465.912 273.726 462.061 275.894 458.248 276.806C454.34 277.764 450.248 277.762 445.071 278.838C439.888 279.884 435.745 282.901 432.717 286.234C429.667 289.57 427.796 293.165 426.573 295.15C425.481 296.942 423.828 299.888 422.564 302.42C421.879 303.846 421.267 305.118 420.861 305.965C412.751 305.652 404.632 305.601 396.518 305.845C400.536 302.511 404.442 300.555 408.428 298.756C413.386 296.491 418.62 294.405 423.676 289.722C430.382 283.288 431.222 276.724 430.39 272.904C429.533 268.951 427.442 267.154 427.442 267.154C425.665 271.202 422.602 273.43 419.342 275.02C416.038 276.628 412.514 277.636 408.697 279.528C404.888 281.397 402.644 284.624 401 288.064C399.369 291.471 398.439 295.016 397.703 296.985C396.91 299.153 395.431 303.204 394.442 305.909C393.043 305.959 391.646 306.017 390.25 306.087C388.366 305.886 386.078 305.822 384.239 306.107C383.387 306.265 382.651 306.427 382.041 306.618C380.4 306.746 378.757 306.868 377.117 307.024C373.456 307.395 369.801 307.853 366.15 308.358C369.787 305.866 372.983 304.138 376.302 302.598C378.666 301.483 381.022 300.449 383.368 299.25C385.76 297.985 387.888 296.887 390.61 294.634C393.829 291.874 395.317 289.623 396.344 287.617C397.328 285.637 397.769 283.863 398.186 282.207C398.556 280.669 398.926 279.133 399.202 277.982C399.466 276.89 399.564 276.181 399.564 276.181C394.944 277.445 391.438 278.756 387.578 279.84C385.752 280.4 383.757 281.008 381.903 281.576C380.938 281.892 380.01 282.197 379.155 282.474C378.296 282.745 377.421 283.027 376.324 283.548C372.217 285.412 370.087 288.703 368.659 292.062C367.253 295.413 366.516 298.86 365.83 300.801C365.238 302.522 364.212 305.374 363.132 307.798C362.972 308.16 362.813 308.508 362.656 308.846C353.286 310.269 343.99 312.209 334.868 314.777C340.26 309.068 344.917 305.143 349.632 301.39C354.841 297.214 360.017 293.213 364.763 287.303C365.562 286.306 366.285 285.335 366.964 284.34C367.718 283.209 368.264 282.254 368.741 281.33C369.696 279.487 370.313 277.878 370.77 276.437C371.669 273.561 371.94 271.273 372.114 269.281C372.271 267.297 372.3 265.616 372.287 264.414C372.279 263.216 372.163 262.494 372.163 262.494C367.289 265.946 363.809 269.054 359.872 271.797C357.935 273.185 356.03 274.497 354.093 275.686C352.069 276.996 349.919 278.536 347.763 280.361C343.436 284.011 341.34 288.439 339.972 292.65C338.633 296.853 338.018 300.854 337.387 303.189C336.822 305.242 335.885 308.664 334.888 311.546C334.43 312.923 333.98 314.17 333.628 315.11C328.789 316.505 324.001 318.081 319.284 319.866C315.397 321.309 311.575 322.932 307.802 324.666C314.352 309.047 323.693 303.318 332.359 291.183C338.434 282.744 340.184 276.311 340.439 271.768C340.705 267.256 339.371 264.701 339.371 264.701C332 274.199 323.666 276.503 314.687 285.742C305.784 295.029 306.984 307.276 306.845 312.337C306.773 315.624 306.788 321.905 306.802 325.115C299.118 328.707 291.717 332.906 284.72 337.703C285.182 330.562 287.897 324.75 290.76 319.357C294.056 313.038 298.189 306.934 300.245 297.74C302.783 286.548 301.052 279.135 298.901 274.926C296.729 270.672 294.158 269.339 294.158 269.339C293.749 275.548 291.802 280.208 289.438 284.709C288.217 286.921 286.891 289.325 285.644 291.58C284.306 293.992 283.067 296.648 281.785 299.026C279.092 304.355 278.316 309.967 278.446 315.093C278.562 320.197 279.678 324.578 280.21 327.137C280.659 329.438 281.618 333.104 282.629 336.017C282.947 336.949 283.265 337.791 283.557 338.524C278.341 342.175 273.338 346.126 268.653 350.456C266.652 352.318 264.707 354.244 262.816 356.222C263.932 351.59 264.632 347.437 265.274 343.54C266.06 338.376 266.74 333.654 267.237 328.999C267.74 324.373 268.108 319.712 268.143 315.031C268.213 310.593 268.257 305.863 267.7 300.484C266.965 293.33 265.17 287.405 262.831 282.99C260.508 278.555 257.741 275.684 255.364 273.986C252.926 272.295 250.936 271.701 249.554 271.513C248.2 271.313 247.492 271.458 247.492 271.458C252.095 277.369 252.794 283.652 252.625 289.524C252.434 295.514 251.254 301.45 250.875 309.374C250.542 317.668 252.449 323.799 254.22 329.34C256.04 334.802 258.041 339.438 258.861 342.415C259.616 345.038 260.716 349.439 261.17 353.438C261.36 354.95 261.465 356.39 261.521 357.598C257.047 362.41 252.922 367.551 249.298 373.046C247.671 375.496 246.133 377.999 244.684 380.551C244.718 380.35 244.757 380.146 244.793 379.946C245.485 375.804 245.972 371.811 246.136 367.764C246.355 363.701 246.323 359.563 245.825 355.137C245.342 350.703 244.443 345.973 242.593 340.805C240.789 335.651 237.844 330.955 234.616 327.392C231.331 323.748 227.796 321.092 224.409 319.089C217.585 315.102 211.482 313.715 207.906 312.848C204.705 312.038 199.506 311.189 195.361 311.211C191.173 311.157 188.289 311.912 188.289 311.912C194.07 312.45 199.69 315.1 204.201 318.172C208.775 321.292 212.561 324.925 215.757 328.804C222.294 336.656 225.938 344.762 229.683 355.686C234.522 370.171 236.541 378.714 238.274 384.445C238.911 386.776 239.485 388.631 239.925 390.022C238.529 393.233 237.304 396.54 236.313 399.968L236.309 399.976C236.09 400.758 236.547 401.572 237.332 401.793C238.116 402.016 238.928 401.562 239.149 400.781L239.183 400.655C239.903 398.1 240.787 395.572 241.785 393.072C242.076 392.945 242.377 392.812 242.65 392.694C243.253 392.548 243.823 392.411 244.361 392.281C245.466 391.985 246.632 391.789 247.852 391.701C249.053 391.597 250.183 391.439 251.391 391.462C256.117 391.366 260.623 391.904 265.02 392.649C273.83 394.139 282.27 396.464 292.885 397.661C307.03 399.283 316.027 397.327 321.174 394.982C326.364 392.561 327.803 389.958 327.803 389.958C311.833 389.708 303.477 383.175 287.197 379.402C270.827 375.469 256.922 382.167 251.315 384.969C249.098 385.985 245.797 387.796 243.224 389.673C245.574 384.429 248.432 379.35 251.583 374.557C252.26 373.515 252.956 372.486 253.667 371.469C256.146 369.714 259.124 368.641 262.192 368.278C266.901 367.637 271.613 368.207 276.178 369.291C280.839 370.363 285.056 371.928 290.526 373.484C295.362 374.817 300.306 376.285 306.008 377.67C321.152 381.503 331.697 380.934 337.606 379.015C340.601 378.08 342.515 376.946 343.687 376.042C344.854 375.151 345.288 374.524 345.288 374.524C336.519 373.99 329.949 371.344 323.531 368.35C317.08 365.33 310.739 361.737 301.681 358.685C299.416 357.928 297.147 357.352 294.937 356.958C293.769 356.749 292.869 356.604 291.94 356.486C290.934 356.343 289.951 356.225 288.92 356.128C284.83 355.725 280.758 355.811 277.126 356.315C269.758 357.336 264.325 360.079 261.365 361.835C261.275 361.883 261.175 361.947 261.081 361.999C264.015 358.612 267.125 355.374 270.384 352.298C273.569 349.312 276.919 346.509 280.375 343.842C288.982 342.932 296.601 345.059 303.455 347.571C311.626 350.575 319.19 354.591 329.809 357.42C335.902 359.046 341.733 360.321 346.546 360.465C351.395 360.661 355.291 359.943 358.058 358.803C360.844 357.652 362.442 356.23 363.279 355.125C364.118 354.02 364.297 353.33 364.297 353.33C360.727 353.954 357.312 353.355 354.295 352.342C351.256 351.328 348.528 349.909 345.817 348.355C343.099 346.797 340.416 345.079 337.291 343.364C335.77 342.509 333.871 341.658 332.336 340.889C330.77 340.123 329.06 339.319 327.219 338.527C319.874 335.315 312.424 334.458 306.082 334.842C299.735 335.193 294.65 336.813 291.666 337.684C290.228 338.063 288.355 338.684 286.429 339.413C294.291 333.975 302.699 329.309 311.458 325.407C314.781 324.413 318.74 324.831 322.228 326.021C326.446 327.494 330.192 329.768 333.683 332.395C335.436 333.69 337.137 335.102 338.909 336.556L341.755 338.85C342.721 339.585 343.68 340.314 344.625 341.03C348.459 343.906 352.658 346.878 357.825 349.592C364.685 353.22 371.224 354.928 376.579 355.191C381.971 355.475 386.096 354.266 388.822 352.942C390.2 352.189 391.255 351.449 392.068 350.768C392.873 350.009 393.437 349.32 393.839 348.749C394.636 347.604 394.814 346.903 394.814 346.903C387.157 348.632 380.916 346.249 375.778 343.02C370.527 339.719 365.989 335.467 359.536 330.511C356.341 328.036 352.838 325.991 349.681 324.551C346.57 323.062 343.005 321.695 339.775 320.92C333.99 319.473 328.952 319.552 325.652 319.799C333.376 317.106 341.275 314.929 349.285 313.187C355.579 314.753 360.149 318.599 363.989 322.718C368.512 327.597 373.208 333.769 381.02 338.562C386.216 341.765 391.037 343.226 394.954 343.685C398.888 344.154 401.956 343.667 404.228 342.934C406.267 342.253 407.662 341.385 408.623 340.624C409.544 341.187 410.473 341.663 411.396 342.033C414.936 343.507 418.086 343.529 420.277 342.947C422.494 342.382 423.863 341.33 424.694 340.497C425.52 339.666 425.83 339.057 425.83 339.057C421.01 338.307 418.31 335.007 416.802 331.563C415.253 328.078 414.387 323.988 412.128 319.353C410.283 315.072 406.331 311.474 402.311 309.46C400.466 308.496 398.63 307.848 396.957 307.38C401.915 307.203 406.878 307.139 411.844 307.177C416.875 309.636 419.813 313.748 422.203 317.981C424.92 322.674 427.172 328.079 432.76 333.244C436.486 336.614 440.374 338.478 443.662 339.067C446.91 339.808 449.605 339.303 451.538 338.706C455.491 337.233 456.9 334.904 456.9 334.904C452.367 333.755 449.483 331.004 447.39 327.949C445.275 324.824 444.01 321.365 441.796 317.576C439.618 313.782 436.002 311.293 432.157 309.644C429.58 308.53 427.006 307.915 424.94 307.508C426.072 307.554 427.205 307.596 428.337 307.652C433.706 308.401 438.366 309.815 442.808 311.443C449.837 314.022 456.357 317.193 464.902 319.555C476.237 322.719 484.449 321.873 489.306 319.545C491.711 318.392 493.153 316.99 493.757 315.815C494.366 314.691 494.36 314.029 494.36 314.029L494.36 314.044ZM396.545 331.911C392.934 328.633 389.892 324.902 385.8 320.742C383.755 318.652 381.566 317.02 379.255 315.678C376.914 314.305 374.37 313.198 371.888 312.431C368.462 311.349 365.259 310.975 362.743 310.822C362.828 310.758 362.918 310.684 363.003 310.62C367.747 309.866 372.512 309.236 377.285 308.721C379.331 308.509 381.381 308.336 383.431 308.17C384.866 308.803 386.224 309.759 387.349 310.855C389.352 312.781 390.843 315.102 392.125 317.522C393.415 319.959 394.49 322.514 395.822 325.256C396.515 326.653 397.2 328.025 398.201 329.615C399.179 331.17 400.04 332.401 401.196 333.876C402.067 334.984 402.993 336.005 403.954 336.948C401.097 335.614 398.706 333.857 396.543 331.91L396.545 331.911Z" fill="#D0D0D0"/>
<path d="M521.403 214.669C519.826 213.289 518.954 211.068 518.47 209.061C517.953 207.027 517.764 204.981 517.642 202.916C517.41 198.77 517.505 194.471 516.566 189.164C514.716 178.479 506.24 172.657 503.005 170.036C501.526 168.847 499.144 166.975 497.057 165.476C496.581 165.136 496.129 164.811 495.707 164.51C500.873 166.084 504.406 168.722 507.526 171.59C510.978 174.731 513.919 178.291 519.123 181.498C522.616 183.618 526.294 184.63 529.324 184.612C532.36 184.653 534.664 183.683 536.101 182.643C537.566 181.657 538.274 180.378 538.67 179.601C539.056 178.777 539.124 178.253 539.124 178.253C535.251 179.069 532.205 177.526 529.984 175.468C527.693 173.367 525.943 170.737 523.032 167.872C520.138 164.989 516.416 163.623 512.968 163.109C509.508 162.582 506.385 162.924 504.582 162.99C502.959 163.057 500.348 163.258 498.171 163.536C496.956 163.708 495.873 163.861 495.153 163.962C491.883 158.615 488.44 153.375 484.811 148.265C488.684 149.416 491.618 151.086 494.485 152.877C498.07 155.091 501.657 157.559 506.843 158.797C513.867 160.343 518.464 158.066 520.574 155.889C522.758 153.64 523.023 151.526 523.023 151.526C519.65 152.122 516.9 151.109 514.477 149.698C512.024 148.265 509.863 146.433 507.01 144.791C504.174 143.146 501.128 143.089 498.205 143.511C495.307 143.925 492.621 144.851 491.035 145.223C489.297 145.646 486.048 146.433 483.877 146.961C483.247 146.084 482.612 145.211 481.967 144.343C481.29 143.045 480.351 141.548 479.381 140.488C478.915 140.009 478.494 139.605 478.111 139.293C477.326 138.293 476.545 137.29 475.74 136.303C473.934 134.108 472.074 131.955 470.184 129.828C473.35 131.095 475.834 132.408 478.249 133.879C479.982 134.919 481.659 135.989 483.435 136.982C485.277 137.976 486.897 138.872 489.515 139.654C492.676 140.539 494.767 140.527 496.501 140.327C498.2 140.109 499.534 139.632 500.783 139.188C501.934 138.766 503.084 138.344 503.945 138.026C504.764 137.726 505.261 137.486 505.261 137.486C502.467 135.06 500.12 133.369 497.769 131.354C496.625 130.42 495.38 129.401 494.219 128.451C493.602 127.966 493.008 127.499 492.464 127.072C491.921 126.636 491.365 126.195 490.559 125.713C487.597 123.874 484.56 123.919 481.782 124.444C479.016 124.979 476.476 125.986 474.929 126.381C473.563 126.741 471.285 127.306 469.256 127.65C468.954 127.702 468.662 127.749 468.374 127.794C463.444 122.383 458.213 117.242 452.65 112.481C458.645 113.494 463.171 114.804 467.614 116.222C472.541 117.777 477.34 119.385 483.185 119.897C484.169 119.982 485.108 120.03 486.04 120.038C487.094 120.038 487.943 119.978 488.743 119.887C490.342 119.707 491.643 119.415 492.77 119.091C495.011 118.432 496.604 117.625 497.964 116.88C499.313 116.129 500.41 115.427 501.181 114.9C501.951 114.382 502.367 113.996 502.367 113.996C498.053 112.345 494.555 111.446 491.099 110.093C489.374 109.444 487.711 108.783 486.115 108.049C484.405 107.312 482.488 106.589 480.388 105.99C476.179 104.776 472.423 105.331 469.118 106.262C465.831 107.207 462.984 108.529 461.206 109.127C459.639 109.646 457.027 110.515 454.741 111.11C453.657 111.407 452.658 111.652 451.899 111.832C448.928 109.322 445.86 106.922 442.688 104.656C440.092 102.779 437.408 101.019 434.674 99.3365C447.56 96.8389 455.259 100.381 466.801 100.738C474.851 101.019 479.752 99.3805 482.797 97.5929C485.823 95.8265 486.903 93.8717 486.903 93.8717C477.616 93.2135 472.561 88.847 462.752 87.0438C452.944 85.3102 445.554 91.3399 442.225 93.4266C440.073 94.7921 436.025 97.4988 433.958 98.8879C428.35 95.4915 422.469 92.5388 416.377 90.1031C421.186 87.3318 426.099 86.5822 430.807 86.1051C436.297 85.5105 442.007 85.5451 448.824 82.9171C457.137 79.7407 461.18 75.4456 462.978 72.2557C464.795 69.0323 464.554 66.8082 464.554 66.8082C460.372 69.2132 456.528 69.9627 452.613 70.3755C450.661 70.5401 448.542 70.7208 446.552 70.8889C444.423 71.0644 442.177 71.4093 440.093 71.6058C435.5 72.1652 431.546 74.0749 428.29 76.3591C425.045 78.6261 422.694 81.2243 421.27 82.6659C419.978 83.9435 418.02 86.1344 416.573 88.0332C416.108 88.6381 415.701 89.2058 415.35 89.7078C410.762 87.9225 406.068 86.403 401.268 85.2535C399.209 84.7667 397.133 84.3432 395.045 83.9778C398.514 82.7065 401.493 81.3725 404.283 80.1106C407.954 78.3999 411.294 76.8066 414.511 75.1287C417.713 73.4639 420.879 71.7005 423.917 69.7132C426.813 67.851 429.884 65.8498 433.12 63.1815C437.425 59.6379 440.481 55.9376 442.331 52.5376C444.2 49.1399 444.869 46.1285 444.947 43.8707C444.994 41.5767 444.526 40.0446 444.055 39.0732C443.603 38.1164 443.207 37.7233 443.207 37.7233C441.363 43.2205 437.606 46.367 433.741 48.7814C429.791 51.2325 425.455 53.0214 420.177 56.1816C414.679 59.5292 411.538 63.387 408.719 66.9063C405.971 70.4213 403.836 73.6989 402.264 75.5049C400.894 77.1182 398.522 79.714 396.137 81.7222C395.243 82.4943 394.356 83.1796 393.6 83.7345C388.577 82.926 383.493 82.4831 378.395 82.5129C376.117 82.5186 373.843 82.6061 371.575 82.7716C371.721 82.708 371.867 82.6445 372.012 82.5829C374.981 81.2487 377.768 79.8487 380.451 78.2139C383.166 76.6113 385.826 74.8124 388.468 72.5917C391.123 70.3773 393.791 67.768 396.337 64.3597C398.892 60.9875 400.664 57.0778 401.581 53.473C402.527 49.798 402.73 46.3853 402.57 43.3466C402.224 37.2483 400.506 32.7316 399.536 30.0598C398.688 27.6546 397.01 23.948 395.223 21.294C393.467 18.578 391.744 17.0507 391.744 17.0507C393.872 20.9957 394.567 25.7456 394.513 29.9656C394.457 34.244 393.731 38.2392 392.598 41.9588C390.325 49.5321 386.654 55.3561 381.206 62.4544C373.927 71.7862 369.274 76.7508 366.317 80.3276C365.084 81.739 364.133 82.9044 363.422 83.7844C360.753 84.2679 358.094 84.899 355.456 85.734L355.449 85.736C354.851 85.9287 354.522 86.5732 354.713 87.1724C354.903 87.7716 355.546 88.0994 356.142 87.9057L356.239 87.8732C358.195 87.239 360.206 86.7211 362.248 86.2886C362.454 86.4213 362.669 86.5582 362.862 86.6816C363.215 87.0066 363.546 87.3149 363.861 87.6046C364.525 88.1886 365.15 88.8529 365.73 89.5995C366.31 90.3257 366.896 90.9854 367.398 91.7719C369.485 94.7696 371.064 97.8968 372.466 101.04C375.274 107.342 377.387 113.765 381.158 121.102C386.167 130.889 391.279 135.832 394.999 138.134C398.783 140.43 401.079 140.236 401.079 140.236C394.403 129.863 395.044 121.689 390.511 109.604C386.042 97.3939 375.767 91.3331 371.556 88.9336C369.95 87.9442 367.367 86.6 365.057 85.7537C369.449 85.0125 373.951 84.6688 378.395 84.6356C379.358 84.6237 380.32 84.6273 381.281 84.6482C383.475 85.4888 385.443 86.9395 386.991 88.7582C389.419 91.5097 391.07 94.7821 392.323 98.1813C393.627 101.637 394.421 105.02 395.759 109.205C396.969 112.886 398.136 116.695 399.683 120.952C403.69 132.332 408.572 138.863 412.341 141.838C414.225 143.361 415.778 144.104 416.865 144.469C417.938 144.837 418.529 144.844 418.529 144.844C415.119 138.978 414.017 133.62 413.202 128.21C412.388 122.766 411.994 117.148 410.089 110.017C409.608 108.236 409.008 106.532 408.316 104.941C407.95 104.099 407.66 103.459 407.337 102.812C407 102.103 406.655 101.421 406.277 100.717C404.786 97.9143 402.986 95.3359 401.107 93.217C397.295 88.9223 393.198 86.6082 390.797 85.4588C390.726 85.4221 390.643 85.3841 390.569 85.3483C394.01 85.7808 397.433 86.389 400.814 87.1614C404.104 87.9255 407.348 88.8742 410.549 89.9503C414.82 95.0914 416.71 100.902 418.022 106.387C419.58 112.928 420.226 119.514 422.945 127.555C424.504 132.17 426.176 136.464 428.144 139.62C430.093 142.819 432.224 145.015 434.145 146.304C436.079 147.601 437.682 148.016 438.754 148.08C439.827 148.143 440.349 147.965 440.349 147.965C438.417 145.937 437.343 143.487 436.704 141.114C436.059 138.723 435.805 136.361 435.648 133.951C435.489 131.534 435.452 129.072 435.219 126.326C435.122 124.981 434.856 123.396 434.696 122.078C434.521 120.744 434.306 119.299 434.029 117.776C432.959 111.676 430.324 106.519 427.361 102.608C424.417 98.6808 421.195 96.1081 419.356 94.5619C418.496 93.8013 417.293 92.8633 415.998 91.9393C422.875 94.6576 429.486 98.056 435.753 102.011C437.816 103.72 439.243 106.442 439.967 109.196C440.822 112.541 440.958 115.925 440.755 119.297C440.669 120.98 440.485 122.68 440.307 124.442L440.043 127.256C439.983 128.192 439.924 129.123 439.865 130.036C439.649 133.736 439.527 137.71 439.988 142.197C440.582 148.163 442.28 153.1 444.402 156.655C446.527 160.243 449.075 162.376 451.094 163.559C452.17 164.122 453.099 164.482 453.887 164.713C454.721 164.903 455.407 164.969 455.948 164.982C457.029 165.003 457.556 164.815 457.556 164.815C453.162 160.636 452.028 155.602 451.913 150.913C451.796 146.119 452.599 141.377 453.036 135.102C453.266 131.984 453.087 128.858 452.666 126.208C452.297 123.569 451.653 120.69 450.769 118.282C449.227 113.942 447.019 110.739 445.446 108.724C450.49 112.533 455.276 116.674 459.83 121.072C461.513 125.79 460.986 130.378 459.972 134.617C458.76 139.619 456.785 145.288 457.034 152.365C457.193 157.08 458.312 160.806 459.689 163.522C461.071 166.252 462.698 168.013 464.145 169.158C465.458 170.177 466.616 170.702 467.517 170.991C467.55 171.826 467.639 172.625 467.794 173.378C468.355 176.287 469.693 178.319 471.005 179.479C472.32 180.661 473.584 181.089 474.477 181.266C475.367 181.438 475.894 181.379 475.894 181.379C474.315 177.958 475.29 174.806 476.868 172.358C478.455 169.867 480.723 167.553 482.751 164.111C484.725 161.088 485.355 157.001 484.936 153.553C484.77 151.955 484.4 150.494 483.986 149.22C486.223 152.329 488.391 155.493 490.489 158.7C491.056 162.989 489.659 166.645 487.949 169.999C486.082 173.761 483.557 177.53 482.614 183.337C482.034 187.179 482.494 190.478 483.522 192.845C484.433 195.249 485.914 196.765 487.125 197.751C489.768 199.66 491.874 199.565 491.874 199.565C490.676 196.159 491.218 193.123 492.294 190.467C493.407 187.765 495.097 185.467 496.596 182.416C498.112 179.387 498.172 175.993 497.59 172.816C497.205 170.682 496.503 168.763 495.881 167.259C496.334 168.007 496.794 168.751 497.242 169.504C499.057 173.277 500.139 176.879 500.991 180.433C502.335 186.059 503.077 191.61 505.211 198.116C508.022 206.759 512.082 211.674 515.665 213.797C517.439 214.848 518.96 215.172 519.979 215.056C520.966 214.963 521.392 214.676 521.392 214.676L521.403 214.669ZM467.998 159.479C468.568 155.751 469.674 152.193 470.608 147.777C471.082 145.564 471.2 143.456 471.075 141.396C470.958 139.3 470.584 137.19 470.018 135.266C469.25 132.601 468.121 130.381 467.142 128.698C467.221 128.725 467.307 128.752 467.383 128.779C469.901 131.505 472.346 134.296 474.722 137.142C475.732 138.367 476.724 139.609 477.707 140.856C477.913 142.051 477.875 143.334 477.652 144.528C477.266 146.642 476.407 148.598 475.392 150.46C474.371 152.337 473.182 154.125 471.982 156.157C471.378 157.203 470.784 158.231 470.186 159.558C469.599 160.854 469.174 161.936 468.717 163.314C468.374 164.348 468.113 165.383 467.915 166.405C467.554 163.995 467.664 161.705 467.996 159.478L467.998 159.479Z" fill="#D0D0D0"/>
<path d="M604.478 889.669C606.055 888.289 606.927 886.068 607.411 884.061C607.928 882.027 608.117 879.981 608.239 877.916C608.471 873.77 608.376 869.471 609.315 864.164C611.165 853.479 619.641 847.657 622.876 845.036C624.355 843.847 626.737 841.975 628.824 840.476C629.3 840.136 629.752 839.811 630.174 839.51C625.008 841.084 621.475 843.722 618.355 846.59C614.903 849.731 611.962 853.291 606.758 856.498C603.265 858.618 599.586 859.63 596.556 859.612C593.521 859.653 591.217 858.683 589.78 857.643C588.315 856.657 587.606 855.378 587.211 854.601C586.825 853.777 586.756 853.253 586.756 853.253C590.63 854.069 593.676 852.526 595.897 850.468C598.188 848.367 599.938 845.737 602.849 842.872C605.743 839.989 609.464 838.623 612.913 838.109C616.373 837.582 619.496 837.924 621.299 837.99C622.922 838.057 625.533 838.258 627.71 838.536C628.925 838.708 630.007 838.861 630.728 838.962C633.998 833.615 637.441 828.375 641.07 823.265C637.197 824.416 634.263 826.086 631.396 827.877C627.811 830.091 624.224 832.559 619.038 833.797C612.014 835.343 607.417 833.066 605.307 830.889C603.123 828.64 602.858 826.526 602.858 826.526C606.231 827.122 608.981 826.109 611.404 824.698C613.856 823.265 616.018 821.433 618.871 819.791C621.707 818.146 624.752 818.089 627.676 818.511C630.574 818.925 633.26 819.851 634.846 820.223C636.584 820.646 639.833 821.433 642.004 821.961C642.634 821.084 643.269 820.211 643.914 819.343C644.591 818.045 645.53 816.548 646.5 815.488C646.966 815.009 647.387 814.605 647.77 814.293C648.555 813.293 649.336 812.29 650.141 811.303C651.946 809.108 653.807 806.955 655.697 804.828C652.531 806.095 650.047 807.408 647.632 808.879C645.899 809.919 644.222 810.989 642.446 811.982C640.604 812.976 638.984 813.872 636.366 814.654C633.205 815.539 631.114 815.527 629.38 815.327C627.681 815.109 626.346 814.632 625.098 814.188C623.946 813.766 622.797 813.344 621.936 813.026C621.117 812.726 620.62 812.486 620.62 812.486C623.414 810.06 625.761 808.369 628.112 806.354C629.256 805.42 630.501 804.401 631.662 803.451C632.279 802.966 632.872 802.499 633.417 802.072C633.96 801.636 634.516 801.195 635.322 800.713C638.284 798.874 641.321 798.919 644.099 799.444C646.865 799.979 649.405 800.986 650.952 801.381C652.318 801.741 654.596 802.306 656.625 802.65C656.927 802.702 657.219 802.749 657.506 802.794C662.437 797.383 667.668 792.242 673.231 787.481C667.236 788.494 662.709 789.804 658.267 791.222C653.34 792.777 648.541 794.385 642.696 794.897C641.712 794.982 640.773 795.03 639.841 795.038C638.787 795.038 637.938 794.978 637.138 794.887C635.539 794.707 634.238 794.415 633.111 794.091C630.87 793.432 629.277 792.625 627.916 791.88C626.568 791.129 625.471 790.427 624.7 789.9C623.93 789.382 623.514 788.996 623.514 788.996C627.828 787.345 631.326 786.446 634.782 785.093C636.507 784.444 638.169 783.783 639.766 783.049C641.476 782.312 643.392 781.589 645.493 780.99C649.702 779.776 653.458 780.331 656.763 781.262C660.05 782.207 662.897 783.529 664.675 784.127C666.242 784.646 668.854 785.515 671.14 786.11C672.224 786.407 673.223 786.652 673.982 786.832C676.953 784.322 680.02 781.922 683.193 779.656C685.789 777.779 688.473 776.019 691.207 774.336C678.321 771.839 670.622 775.381 659.08 775.738C651.03 776.019 646.129 774.381 643.084 772.593C640.058 770.827 638.978 768.872 638.978 768.872C648.264 768.214 653.32 763.847 663.128 762.044C672.937 760.31 680.327 766.34 683.655 768.427C685.808 769.792 689.856 772.499 691.923 773.888C697.531 770.492 703.412 767.539 709.504 765.103C704.695 762.332 699.782 761.582 695.074 761.105C689.583 760.51 683.874 760.545 677.057 757.917C668.744 754.741 664.701 750.446 662.903 747.256C661.086 744.032 661.327 741.808 661.327 741.808C665.509 744.213 669.352 744.963 673.268 745.376C675.22 745.54 677.339 745.721 679.329 745.889C681.458 746.064 683.704 746.409 685.788 746.606C690.381 747.165 694.335 749.075 697.591 751.359C700.835 753.626 703.187 756.224 704.611 757.666C705.903 758.943 707.861 761.134 709.308 763.033C709.773 763.638 710.18 764.206 710.53 764.708C715.119 762.923 719.812 761.403 724.613 760.254C726.671 759.767 728.748 759.343 730.836 758.978C727.367 757.707 724.388 756.372 721.597 755.111C717.927 753.4 714.587 751.807 711.37 750.129C708.168 748.464 705.002 746.7 701.964 744.713C699.068 742.851 695.997 740.85 692.761 738.181C688.456 734.638 685.399 730.938 683.55 727.538C681.681 724.14 681.012 721.128 680.934 718.871C680.887 716.577 681.355 715.045 681.826 714.073C682.278 713.116 682.673 712.723 682.673 712.723C684.518 718.22 688.274 721.367 692.14 723.781C696.089 726.232 700.425 728.021 705.704 731.182C711.202 734.529 714.343 738.387 717.162 741.906C719.91 745.421 722.045 748.699 723.616 750.505C724.987 752.118 727.358 754.714 729.744 756.722C730.638 757.494 731.525 758.18 732.28 758.735C737.304 757.926 742.388 757.483 747.486 757.513C749.764 757.519 752.038 757.606 754.306 757.772C754.16 757.708 754.014 757.644 753.869 757.583C750.9 756.249 748.112 754.849 745.43 753.214C742.715 751.611 740.055 749.812 737.413 747.592C734.758 745.377 732.09 742.768 729.544 739.36C726.989 735.987 725.217 732.078 724.3 728.473C723.354 724.798 723.151 721.385 723.311 718.347C723.657 712.248 725.375 707.732 726.345 705.06C727.193 702.655 728.871 698.948 730.657 696.294C732.414 693.578 734.137 692.051 734.137 692.051C732.009 695.996 731.314 700.746 731.368 704.966C731.423 709.244 732.15 713.239 733.283 716.959C735.556 724.532 739.227 730.356 744.675 737.454C751.954 746.786 756.607 751.751 759.564 755.328C760.797 756.739 761.748 757.904 762.458 758.784C765.128 759.268 767.787 759.899 770.425 760.734L770.431 760.736C771.03 760.929 771.359 761.573 771.168 762.172C770.978 762.772 770.335 763.099 769.739 762.906L769.642 762.873C767.686 762.239 765.675 761.721 763.633 761.289C763.427 761.421 763.212 761.558 763.019 761.682C762.666 762.007 762.335 762.315 762.019 762.605C761.356 763.189 760.731 763.853 760.151 764.6C759.571 765.326 758.985 765.985 758.483 766.772C756.396 769.77 754.817 772.897 753.415 776.04C750.607 782.342 748.494 788.765 744.723 796.102C739.714 805.889 734.602 810.832 730.882 813.134C727.098 815.43 724.802 815.236 724.802 815.236C731.477 804.863 730.837 796.689 735.37 784.604C739.839 772.394 750.114 766.333 754.325 763.934C755.931 762.944 758.514 761.6 760.824 760.754C756.432 760.012 751.93 759.669 747.485 759.636C746.523 759.624 745.561 759.627 744.6 759.648C742.406 760.489 740.438 761.94 738.89 763.758C736.462 766.51 734.811 769.782 733.558 773.181C732.254 776.637 731.46 780.02 730.122 784.205C728.912 787.886 727.744 791.695 726.198 795.952C722.191 807.332 717.309 813.863 713.54 816.838C711.656 818.361 710.103 819.104 709.016 819.469C707.942 819.837 707.352 819.844 707.352 819.844C710.762 813.978 711.864 808.62 712.679 803.21C713.493 797.766 713.887 792.148 715.792 785.017C716.273 783.236 716.873 781.532 717.565 779.941C717.93 779.099 718.221 778.459 718.543 777.812C718.88 777.103 719.226 776.421 719.604 775.717C721.095 772.914 722.895 770.336 724.774 768.217C728.586 763.922 732.683 761.608 735.084 760.459C735.155 760.422 735.238 760.384 735.312 760.348C731.871 760.781 728.448 761.389 725.067 762.161C721.776 762.925 718.533 763.874 715.332 764.95C711.061 770.091 709.17 775.902 707.859 781.387C706.301 787.928 705.655 794.514 702.936 802.555C701.377 807.17 699.705 811.464 697.737 814.62C695.788 817.819 693.657 820.015 691.736 821.304C689.802 822.601 688.199 823.016 687.127 823.08C686.054 823.143 685.532 822.965 685.532 822.965C687.464 820.937 688.538 818.487 689.177 816.114C689.822 813.723 690.076 811.361 690.233 808.951C690.392 806.534 690.429 804.072 690.661 801.326C690.759 799.981 691.025 798.396 691.185 797.078C691.36 795.744 691.575 794.299 691.852 792.776C692.922 786.676 695.557 781.519 698.52 777.608C701.464 773.681 704.686 771.108 706.524 769.562C707.385 768.801 708.587 767.863 709.882 766.939C703.006 769.658 696.394 773.056 690.128 777.011C688.065 778.72 686.638 781.442 685.914 784.196C685.059 787.541 684.923 790.925 685.126 794.297C685.212 795.98 685.396 797.68 685.574 799.442L685.837 802.256C685.898 803.192 685.957 804.123 686.016 805.036C686.232 808.736 686.353 812.71 685.892 817.197C685.298 823.163 683.6 828.1 681.479 831.655C679.354 835.243 676.806 837.376 674.787 838.559C673.711 839.122 672.782 839.482 671.994 839.713C671.16 839.903 670.474 839.969 669.933 839.982C668.852 840.003 668.325 839.815 668.325 839.815C672.719 835.636 673.853 830.602 673.968 825.913C674.085 821.119 673.282 816.377 672.845 810.102C672.614 806.984 672.794 803.858 673.214 801.208C673.584 798.569 674.228 795.69 675.111 793.282C676.653 788.942 678.862 785.739 680.435 783.724C675.391 787.533 670.605 791.674 666.051 796.072C664.368 800.79 664.895 805.378 665.909 809.617C667.121 814.619 669.096 820.288 668.846 827.365C668.688 832.08 667.569 835.806 666.192 838.522C664.81 841.252 663.183 843.013 661.735 844.158C660.423 845.177 659.265 845.702 658.364 845.991C658.331 846.826 658.242 847.625 658.087 848.378C657.525 851.287 656.188 853.319 654.876 854.479C653.561 855.661 652.297 856.089 651.404 856.266C650.514 856.438 649.987 856.379 649.987 856.379C651.566 852.958 650.59 849.806 649.013 847.358C647.426 844.867 645.158 842.553 643.129 839.111C641.156 836.088 640.526 832.001 640.945 828.553C641.111 826.955 641.48 825.494 641.894 824.22C639.658 827.329 637.49 830.493 635.392 833.7C634.825 837.989 636.221 841.645 637.931 844.999C639.799 848.761 642.324 852.53 643.267 858.337C643.847 862.179 643.387 865.478 642.359 867.845C641.448 870.249 639.967 871.765 638.755 872.751C636.112 874.66 634.007 874.565 634.007 874.565C635.205 871.159 634.662 868.123 633.587 865.467C632.474 862.765 630.784 860.467 629.285 857.416C627.769 854.387 627.709 850.993 628.291 847.816C628.676 845.682 629.378 843.763 630 842.259C629.547 843.007 629.087 843.751 628.639 844.504C626.824 848.277 625.742 851.879 624.89 855.433C623.546 861.059 622.803 866.61 620.669 873.116C617.858 881.759 613.799 886.674 610.216 888.797C608.442 889.848 606.921 890.172 605.902 890.056C604.915 889.963 604.489 889.676 604.489 889.676L604.478 889.669ZM657.883 834.479C657.313 830.751 656.207 827.193 655.273 822.777C654.799 820.564 654.681 818.456 654.806 816.396C654.923 814.3 655.297 812.19 655.863 810.266C656.631 807.601 657.76 805.381 658.738 803.698C658.66 803.725 658.574 803.752 658.498 803.779C655.98 806.505 653.535 809.296 651.159 812.142C650.149 813.367 649.157 814.609 648.174 815.856C647.968 817.051 648.006 818.334 648.229 819.528C648.615 821.642 649.474 823.598 650.488 825.46C651.51 827.337 652.699 829.125 653.899 831.157C654.503 832.203 655.097 833.231 655.695 834.558C656.282 835.854 656.706 836.936 657.163 838.314C657.507 839.348 657.768 840.383 657.966 841.405C658.327 838.995 658.217 836.705 657.885 834.478L657.883 834.479Z" fill="#D0D0D0"/>
<path d="M367.211 769.669C365.634 768.289 364.762 766.068 364.278 764.061C363.761 762.027 363.572 759.981 363.45 757.916C363.218 753.77 363.313 749.471 362.374 744.164C360.524 733.479 352.048 727.657 348.813 725.036C347.334 723.847 344.952 721.975 342.865 720.476C342.389 720.136 341.937 719.811 341.515 719.51C346.681 721.084 350.214 723.722 353.334 726.59C356.786 729.731 359.727 733.291 364.931 736.498C368.424 738.618 372.102 739.63 375.133 739.612C378.168 739.653 380.472 738.683 381.909 737.643C383.374 736.657 384.083 735.378 384.478 734.601C384.864 733.777 384.932 733.253 384.932 733.253C381.059 734.069 378.013 732.526 375.792 730.468C373.501 728.367 371.751 725.737 368.84 722.872C365.946 719.989 362.225 718.623 358.776 718.109C355.316 717.582 352.193 717.924 350.39 717.99C348.767 718.057 346.156 718.258 343.979 718.536C342.764 718.708 341.682 718.861 340.961 718.962C337.691 713.615 334.248 708.375 330.619 703.265C334.492 704.416 337.426 706.086 340.293 707.877C343.878 710.091 347.465 712.559 352.651 713.797C359.675 715.343 364.272 713.066 366.382 710.889C368.566 708.64 368.831 706.526 368.831 706.526C365.458 707.122 362.708 706.109 360.285 704.698C357.832 703.265 355.671 701.433 352.818 699.791C349.982 698.146 346.936 698.089 344.013 698.511C341.115 698.925 338.429 699.851 336.843 700.223C335.105 700.646 331.856 701.433 329.685 701.961C329.055 701.084 328.42 700.211 327.775 699.343C327.098 698.045 326.159 696.548 325.189 695.488C324.723 695.009 324.302 694.605 323.919 694.293C323.134 693.293 322.353 692.29 321.548 691.303C319.743 689.108 317.882 686.955 315.992 684.828C319.158 686.095 321.642 687.408 324.057 688.879C325.79 689.919 327.467 690.989 329.243 691.982C331.085 692.976 332.705 693.872 335.323 694.654C338.484 695.539 340.575 695.527 342.309 695.327C344.008 695.109 345.343 694.632 346.591 694.188C347.743 693.766 348.892 693.344 349.753 693.026C350.572 692.726 351.069 692.486 351.069 692.486C348.275 690.06 345.928 688.369 343.577 686.354C342.433 685.42 341.188 684.401 340.027 683.451C339.41 682.966 338.817 682.499 338.272 682.072C337.729 681.636 337.173 681.195 336.367 680.713C333.405 678.874 330.368 678.919 327.59 679.444C324.824 679.979 322.284 680.986 320.737 681.381C319.371 681.741 317.093 682.306 315.064 682.65C314.762 682.702 314.47 682.749 314.182 682.794C309.252 677.383 304.021 672.242 298.458 667.481C304.453 668.494 308.98 669.804 313.422 671.222C318.349 672.777 323.148 674.385 328.993 674.897C329.977 674.982 330.916 675.03 331.848 675.038C332.902 675.038 333.751 674.978 334.551 674.887C336.15 674.707 337.451 674.415 338.578 674.091C340.819 673.432 342.412 672.625 343.773 671.88C345.121 671.129 346.218 670.427 346.989 669.9C347.759 669.382 348.175 668.996 348.175 668.996C343.861 667.345 340.363 666.446 336.907 665.093C335.182 664.444 333.519 663.783 331.923 663.049C330.213 662.312 328.297 661.589 326.196 660.99C321.987 659.776 318.231 660.331 314.926 661.262C311.639 662.207 308.792 663.529 307.014 664.127C305.447 664.646 302.835 665.515 300.549 666.11C299.465 666.407 298.466 666.652 297.707 666.832C294.736 664.322 291.669 661.922 288.496 659.656C285.9 657.779 283.216 656.019 280.482 654.336C293.368 651.839 301.067 655.381 312.609 655.738C320.659 656.019 325.56 654.381 328.605 652.593C331.631 650.827 332.711 648.872 332.711 648.872C323.425 648.214 318.369 643.847 308.561 642.044C298.752 640.31 291.362 646.34 288.033 648.427C285.881 649.792 281.833 652.499 279.766 653.888C274.158 650.492 268.277 647.539 262.185 645.103C266.994 642.332 271.907 641.582 276.615 641.105C282.106 640.51 287.815 640.545 294.632 637.917C302.945 634.741 306.988 630.446 308.786 627.256C310.603 624.032 310.362 621.808 310.362 621.808C306.18 624.213 302.337 624.963 298.421 625.376C296.469 625.54 294.35 625.721 292.36 625.889C290.231 626.064 287.985 626.409 285.901 626.606C281.308 627.165 277.354 629.075 274.098 631.359C270.854 633.626 268.502 636.224 267.078 637.666C265.786 638.943 263.828 641.134 262.381 643.033C261.916 643.638 261.509 644.206 261.159 644.708C256.57 642.923 251.876 641.403 247.076 640.254C245.018 639.767 242.941 639.343 240.853 638.978C244.322 637.707 247.301 636.372 250.092 635.111C253.762 633.4 257.102 631.807 260.319 630.129C263.521 628.464 266.687 626.7 269.725 624.713C272.621 622.851 275.692 620.85 278.928 618.181C283.233 614.638 286.29 610.938 288.139 607.538C290.008 604.14 290.677 601.128 290.755 598.871C290.802 596.577 290.334 595.045 289.863 594.073C289.411 593.116 289.016 592.723 289.016 592.723C287.171 598.22 283.415 601.367 279.549 603.781C275.6 606.232 271.264 608.021 265.985 611.182C260.487 614.529 257.346 618.387 254.527 621.906C251.779 625.421 249.644 628.699 248.073 630.505C246.702 632.118 244.33 634.714 241.945 636.722C241.051 637.494 240.164 638.18 239.408 638.735C234.385 637.926 229.301 637.483 224.203 637.513C221.925 637.519 219.651 637.606 217.383 637.772C217.529 637.708 217.675 637.644 217.82 637.583C220.789 636.249 223.577 634.849 226.259 633.214C228.974 631.611 231.634 629.812 234.276 627.592C236.931 625.377 239.599 622.768 242.145 619.36C244.7 615.987 246.472 612.078 247.389 608.473C248.335 604.798 248.538 601.385 248.378 598.347C248.032 592.248 246.314 587.732 245.344 585.06C244.496 582.655 242.818 578.948 241.032 576.294C239.275 573.578 237.552 572.051 237.552 572.051C239.68 575.996 240.375 580.746 240.321 584.966C240.266 589.244 239.539 593.239 238.406 596.959C236.133 604.532 232.462 610.356 227.014 617.454C219.735 626.786 215.082 631.751 212.125 635.328C210.892 636.739 209.941 637.904 209.231 638.784C206.561 639.268 203.902 639.899 201.264 640.734L201.257 640.736C200.659 640.929 200.33 641.573 200.521 642.172C200.711 642.772 201.354 643.099 201.95 642.906L202.047 642.873C204.003 642.239 206.014 641.721 208.056 641.289C208.262 641.421 208.477 641.558 208.67 641.682C209.023 642.007 209.354 642.315 209.67 642.605C210.333 643.189 210.958 643.853 211.538 644.6C212.118 645.326 212.704 645.985 213.206 646.772C215.293 649.77 216.872 652.897 218.274 656.04C221.082 662.342 223.195 668.765 226.966 676.102C231.975 685.889 237.087 690.832 240.807 693.134C244.591 695.43 246.887 695.236 246.887 695.236C240.212 684.863 240.852 676.689 236.319 664.604C231.85 652.394 221.575 646.333 217.364 643.934C215.758 642.944 213.175 641.6 210.865 640.754C215.257 640.012 219.759 639.669 224.204 639.636C225.166 639.624 226.128 639.627 227.089 639.648C229.283 640.489 231.251 641.94 232.799 643.758C235.227 646.51 236.878 649.782 238.131 653.181C239.435 656.637 240.229 660.02 241.567 664.205C242.777 667.886 243.944 671.695 245.491 675.952C249.498 687.332 254.38 693.863 258.149 696.838C260.033 698.361 261.586 699.104 262.673 699.469C263.747 699.837 264.337 699.844 264.337 699.844C260.927 693.978 259.825 688.62 259.01 683.21C258.196 677.766 257.802 672.148 255.897 665.017C255.416 663.236 254.816 661.532 254.124 659.941C253.758 659.099 253.468 658.459 253.146 657.812C252.808 657.103 252.463 656.421 252.085 655.717C250.594 652.914 248.794 650.336 246.915 648.217C243.103 643.922 239.006 641.608 236.605 640.459C236.534 640.422 236.451 640.384 236.377 640.348C239.818 640.781 243.241 641.389 246.622 642.161C249.913 642.925 253.156 643.874 256.357 644.95C260.628 650.091 262.518 655.902 263.83 661.387C265.388 667.928 266.034 674.514 268.753 682.555C270.312 687.17 271.984 691.464 273.952 694.62C275.901 697.819 278.032 700.015 279.953 701.304C281.887 702.601 283.49 703.016 284.562 703.08C285.635 703.143 286.157 702.965 286.157 702.965C284.225 700.937 283.151 698.487 282.512 696.114C281.867 693.723 281.613 691.361 281.456 688.951C281.297 686.534 281.26 684.072 281.027 681.326C280.93 679.981 280.664 678.396 280.504 677.078C280.329 675.744 280.114 674.299 279.837 672.776C278.767 666.676 276.132 661.519 273.169 657.608C270.225 653.681 267.003 651.108 265.165 649.562C264.304 648.801 263.101 647.863 261.807 646.939C268.683 649.658 275.295 653.056 281.561 657.011C283.624 658.72 285.051 661.442 285.775 664.196C286.63 667.541 286.766 670.925 286.563 674.297C286.477 675.98 286.293 677.68 286.115 679.442L285.852 682.256C285.791 683.192 285.732 684.123 285.673 685.036C285.457 688.736 285.335 692.71 285.797 697.197C286.39 703.163 288.089 708.1 290.21 711.655C292.335 715.243 294.883 717.376 296.902 718.559C297.978 719.122 298.907 719.482 299.695 719.713C300.529 719.903 301.215 719.969 301.756 719.982C302.837 720.003 303.364 719.815 303.364 719.815C298.97 715.636 297.836 710.602 297.721 705.913C297.604 701.119 298.407 696.377 298.844 690.102C299.074 686.984 298.895 683.858 298.474 681.208C298.105 678.569 297.461 675.69 296.578 673.282C295.035 668.942 292.827 665.739 291.254 663.724C296.298 667.533 301.084 671.674 305.638 676.072C307.321 680.79 306.794 685.378 305.78 689.617C304.568 694.619 302.593 700.288 302.843 707.365C303.001 712.08 304.12 715.806 305.497 718.522C306.879 721.252 308.506 723.013 309.954 724.158C311.266 725.177 312.424 725.702 313.325 725.991C313.358 726.826 313.447 727.625 313.602 728.378C314.164 731.287 315.501 733.319 316.813 734.479C318.128 735.661 319.392 736.089 320.285 736.266C321.175 736.438 321.702 736.379 321.702 736.379C320.123 732.958 321.098 729.806 322.676 727.358C324.263 724.867 326.531 722.553 328.559 719.111C330.533 716.088 331.163 712.001 330.744 708.553C330.578 706.955 330.208 705.494 329.795 704.22C332.031 707.329 334.199 710.493 336.297 713.7C336.864 717.989 335.468 721.645 333.758 724.999C331.89 728.761 329.365 732.53 328.422 738.337C327.842 742.179 328.302 745.478 329.33 747.845C330.241 750.249 331.722 751.765 332.934 752.751C335.577 754.66 337.682 754.565 337.682 754.565C336.484 751.159 337.026 748.123 338.102 745.467C339.215 742.765 340.905 740.467 342.404 737.416C343.92 734.387 343.98 730.993 343.398 727.816C343.013 725.682 342.311 723.763 341.689 722.259C342.142 723.007 342.602 723.751 343.05 724.504C344.865 728.277 345.947 731.879 346.799 735.433C348.143 741.059 348.886 746.61 351.019 753.116C353.831 761.759 357.89 766.674 361.473 768.797C363.247 769.848 364.768 770.172 365.787 770.056C366.774 769.963 367.2 769.676 367.2 769.676L367.211 769.669ZM313.806 714.479C314.376 710.751 315.482 707.193 316.416 702.777C316.89 700.564 317.008 698.456 316.883 696.396C316.766 694.3 316.392 692.19 315.826 690.266C315.058 687.601 313.929 685.381 312.951 683.698C313.029 683.725 313.115 683.752 313.191 683.779C315.709 686.505 318.154 689.296 320.53 692.142C321.54 693.367 322.532 694.609 323.515 695.856C323.721 697.051 323.683 698.334 323.46 699.528C323.074 701.642 322.215 703.598 321.2 705.46C320.179 707.337 318.99 709.125 317.79 711.157C317.186 712.203 316.592 713.231 315.994 714.558C315.407 715.854 314.983 716.936 314.526 718.314C314.182 719.348 313.921 720.383 313.723 721.405C313.362 718.995 313.472 716.705 313.804 714.478L313.806 714.479Z" fill="#D0D0D0"/>
<path opacity="0.3" d="M398.356 797.987C395.726 799.204 392.438 799.061 389.635 798.547C386.781 798.059 384.1 797.153 381.428 796.151C376.075 794.119 370.714 791.594 363.498 789.805C348.995 786.154 336.879 793.584 331.751 796.199C329.419 797.399 325.718 799.355 322.652 801.148C321.955 801.557 321.292 801.946 320.675 802.31C325.572 796.672 330.887 793.695 336.262 791.366C342.165 788.768 348.308 787.054 355.286 782.283C359.926 779.064 363.273 774.99 364.962 771.154C366.728 767.346 366.804 763.897 366.307 761.502C365.889 759.101 364.68 757.493 363.923 756.557C363.105 755.608 362.48 755.229 362.48 755.229C361.325 760.572 357.661 763.554 353.814 765.201C349.875 766.914 345.574 767.649 340.324 769.716C335.06 771.755 331.239 775.683 328.648 779.745C326.031 783.813 324.7 787.945 323.766 790.257C322.935 792.345 321.717 795.751 320.837 798.652C320.369 800.282 319.952 801.733 319.673 802.7C311.094 803.83 302.55 805.237 294.066 806.954C297.702 802.711 301.46 799.945 305.331 797.332C310.141 794.05 315.274 790.906 319.761 785.056C325.672 777.061 325.395 769.984 323.844 766.103C322.242 762.088 319.729 760.567 319.729 760.567C318.578 765.159 315.751 768.059 312.606 770.327C309.417 772.617 305.891 774.317 302.214 776.998C298.541 779.656 296.752 783.467 295.632 787.391C294.519 791.278 294.169 795.19 293.743 797.397C293.295 799.827 292.455 804.366 291.893 807.402C290.433 807.706 288.973 808.018 287.518 808.344C285.502 808.469 283.086 808.815 281.204 809.447C280.336 809.767 279.59 810.071 278.983 810.381C277.28 810.812 275.575 811.236 273.881 811.696C270.099 812.744 266.337 813.887 262.589 815.077C265.972 811.795 269.025 809.392 272.241 807.173C274.53 805.57 276.822 804.055 279.077 802.367C281.368 800.601 283.41 799.058 285.873 796.192C288.768 792.699 289.934 790.055 290.66 787.754C291.344 785.489 291.494 783.538 291.639 781.713C291.757 780.023 291.874 778.336 291.961 777.07C292.043 775.871 292.022 775.105 292.022 775.105C287.39 777.271 283.936 779.285 280.071 781.122C278.25 782.041 276.262 783.042 274.414 783.975C273.455 784.482 272.533 784.969 271.685 785.417C270.83 785.858 269.961 786.313 268.899 787.061C264.912 789.767 263.254 793.623 262.349 797.424C261.463 801.213 261.298 804.983 260.921 807.154C260.604 809.077 260.03 812.271 259.32 815.024C259.216 815.436 259.11 815.83 259.004 816.216C249.408 819.405 239.979 823.124 230.846 827.475C235.505 820.48 239.708 815.501 243.998 810.691C248.736 805.347 253.469 800.193 257.412 793.104C258.077 791.909 258.665 790.751 259.203 789.581C259.796 788.252 260.202 787.147 260.54 786.086C261.215 783.968 261.582 782.162 261.807 780.557C262.244 777.361 262.124 774.9 261.954 772.765C261.767 770.643 261.5 768.866 261.273 767.597C261.053 766.333 260.802 765.592 260.802 765.592C256.29 770.113 253.181 774.02 249.528 777.621C247.738 779.434 245.966 781.163 244.142 782.765C242.247 784.511 240.259 786.524 238.317 788.839C234.414 793.469 232.994 798.52 232.301 803.209C231.638 807.886 231.697 812.218 231.448 814.795C231.217 817.062 230.837 820.843 230.298 824.062C230.061 825.598 229.807 826.994 229.604 828.051C224.765 830.393 220.012 832.919 215.368 835.651C211.538 837.874 207.806 840.275 204.148 842.782C208.27 825.125 217.076 817.396 224.04 803.034C228.933 793.035 229.637 785.934 229.102 781.093C228.583 776.283 226.729 773.828 226.729 773.828C220.662 785.178 212.309 789.108 204.504 800.474C196.787 811.876 200.213 824.582 200.965 829.947C201.47 833.426 202.597 840.053 203.178 843.437C195.737 848.609 188.7 854.373 182.194 860.696C181.417 853.077 183.245 846.455 185.299 840.251C187.649 832.99 190.912 825.806 191.447 815.733C192.137 803.468 189.006 795.957 186.003 791.905C182.967 787.806 180.029 786.863 180.029 786.863C180.699 793.489 179.475 798.755 177.785 803.93C176.892 806.485 175.922 809.261 175.013 811.864C174.032 814.649 173.2 817.674 172.272 820.415C170.385 826.523 170.56 832.585 171.603 837.968C172.627 843.332 174.574 847.754 175.586 850.358C176.467 852.703 178.121 856.401 179.697 859.29C180.197 860.218 180.682 861.049 181.118 861.769C176.283 866.559 171.719 871.63 167.561 877.042C165.786 879.366 164.082 881.751 162.444 884.176C162.799 879.088 162.8 874.58 162.784 870.351C162.7 864.76 162.578 859.656 162.277 854.656C161.988 849.684 161.552 844.7 160.763 839.755C160.052 835.059 159.263 830.061 157.726 824.486C155.69 817.069 152.754 811.14 149.515 806.902C146.29 802.64 142.871 800.109 140.076 798.747C137.215 797.403 135.018 797.133 133.531 797.183C132.072 797.218 131.352 797.496 131.352 797.496C137.235 802.904 139.08 809.406 139.94 815.634C140.8 821.987 140.607 828.463 141.61 836.892C142.725 845.704 145.814 851.83 148.655 857.357C151.532 862.792 154.457 867.324 155.845 870.317C157.103 872.949 159.035 877.394 160.22 881.533C160.687 883.093 161.051 884.594 161.324 885.86C157.471 891.745 154.045 897.91 151.207 904.36C149.93 907.238 148.757 910.155 147.684 913.109C147.685 912.892 147.69 912.669 147.692 912.451C147.686 907.957 147.494 903.657 146.952 899.356C146.464 895.033 145.7 890.67 144.392 886.09C143.101 881.499 141.32 876.671 138.463 871.55C135.656 866.436 131.732 862.013 127.707 858.832C123.61 855.581 119.428 853.413 115.51 851.909C107.634 848.931 100.975 848.566 97.0622 848.293C93.5528 848.014 87.9396 848.058 83.5876 848.825C79.1762 849.522 76.2804 850.838 76.2804 850.838C82.451 850.364 88.8262 852.148 94.112 854.579C99.4711 857.046 104.094 860.2 108.138 863.716C116.397 870.825 121.659 878.72 127.527 889.572C135.172 903.984 138.805 912.636 141.641 918.369C142.723 920.714 143.654 922.567 144.36 923.957C143.462 927.597 142.759 931.304 142.322 935.101L142.322 935.113C142.227 935.977 142.851 936.753 143.715 936.846C144.578 936.939 145.351 936.315 145.444 935.453L145.461 935.313C145.766 932.488 146.247 929.661 146.854 926.842C147.139 926.654 147.432 926.462 147.696 926.288C148.306 926.026 148.879 925.779 149.422 925.546C150.532 925.037 151.722 924.619 152.987 924.307C154.229 923.983 155.389 923.612 156.664 923.417C161.616 922.464 166.446 922.22 171.198 922.215C180.722 922.201 190.003 923.134 201.372 922.486C216.527 921.65 225.635 917.967 230.633 914.567C235.661 911.079 236.713 908.074 236.713 908.074C219.884 910.687 209.947 905.3 192.168 904.247C174.268 903.044 160.836 912.614 155.438 916.581C153.289 918.052 150.137 920.557 147.766 923C149.311 917.045 151.417 911.171 153.881 905.546C154.407 904.324 154.957 903.112 155.525 901.912C157.82 899.613 160.762 897.944 163.923 897.009C168.76 895.486 173.812 895.237 178.801 895.56C183.889 895.851 188.6 896.744 194.625 897.401C199.944 897.935 205.4 898.596 211.635 899.031C228.229 900.35 239.212 897.849 245.085 894.761C248.068 893.236 249.881 891.694 250.95 890.528C252.02 889.377 252.365 888.639 252.365 888.639C243.054 889.655 235.68 888.044 228.407 886.041C221.093 884.017 213.794 881.368 203.734 879.778C201.222 879.388 198.734 879.189 196.34 879.171C195.073 879.162 194.104 879.167 193.105 879.214C192.023 879.244 190.967 879.297 189.867 879.38C185.495 879.691 181.233 880.516 177.505 881.7C169.943 884.104 164.717 887.975 161.916 890.36C161.829 890.429 161.735 890.513 161.648 890.584C164.134 886.484 166.83 882.508 169.712 878.676C172.532 874.952 175.557 871.391 178.718 867.955C187.602 865.447 195.988 866.317 203.638 867.736C212.758 869.435 221.415 872.309 233.077 873.384C239.768 874.001 246.123 874.298 251.206 873.584C256.337 872.919 260.305 871.458 263.011 869.759C265.736 868.044 267.164 866.255 267.849 864.938C268.534 863.62 268.602 862.861 268.602 862.861C264.959 864.162 261.264 864.145 257.915 863.621C254.541 863.097 251.423 862.091 248.3 860.939C245.167 859.785 242.045 858.454 238.454 857.21C236.705 856.581 234.557 856.027 232.808 855.492C231.029 854.966 229.087 854.426 227.012 853.923C218.724 851.854 210.741 852.292 204.145 853.84C197.537 855.354 192.479 857.98 189.493 859.433C188.049 860.091 186.192 861.083 184.295 862.199C191.597 855.045 199.609 848.608 208.125 842.915C211.441 841.268 215.677 840.995 219.553 841.625C224.246 842.42 228.586 844.145 232.72 846.289C234.792 847.341 236.829 848.523 238.948 849.737L242.345 851.647C243.489 852.247 244.627 852.843 245.746 853.43C250.286 855.774 255.223 858.154 261.135 860.085C268.987 862.679 276.164 863.303 281.838 862.616C287.555 861.944 291.678 859.927 294.309 858.039C295.623 856.998 296.603 856.025 297.338 855.16C298.05 854.214 298.521 853.387 298.84 852.711C299.477 851.359 299.538 850.586 299.538 850.586C291.796 853.788 284.815 852.398 278.844 849.918C272.741 847.38 267.219 843.711 259.562 839.644C255.765 837.608 251.724 836.08 248.151 835.129C244.618 834.119 240.628 833.319 237.098 833.081C230.76 832.598 225.482 833.586 222.055 834.441C229.698 830.209 237.616 826.489 245.725 823.21C252.618 823.729 258.099 826.967 262.865 830.619C268.482 834.951 274.507 840.619 283.567 844.269C289.592 846.712 294.92 847.386 299.118 847.169C303.336 846.956 306.472 845.888 308.733 844.706C310.755 843.62 312.07 842.453 312.945 841.48C314.014 841.906 315.072 842.243 316.109 842.467C320.092 843.386 323.406 842.839 325.607 841.834C327.838 840.838 329.091 839.483 329.817 838.452C330.538 837.426 330.757 836.729 330.757 836.729C325.558 836.803 322.138 833.811 319.942 830.448C317.698 827.05 316.065 822.89 312.872 818.404C310.176 814.221 305.386 811.135 300.804 809.733C298.695 809.048 296.65 808.694 294.808 808.503C299.988 807.422 305.192 806.461 310.417 805.608C316.14 807.296 319.955 811.107 323.215 815.142C326.9 819.606 330.222 824.905 337.008 829.344C341.518 832.23 345.936 833.494 349.496 833.525C353.04 833.724 355.782 832.704 357.708 831.728C361.602 829.462 362.672 826.751 362.672 826.751C357.705 826.355 354.188 823.971 351.448 821.125C348.672 818.208 346.73 814.788 343.733 811.187C340.775 807.577 336.533 805.6 332.2 804.554C329.296 803.842 326.481 803.656 324.236 803.598C325.434 803.444 326.63 803.283 327.831 803.138C333.607 802.962 338.754 803.615 343.712 804.532C351.557 805.99 358.969 808.161 368.37 809.115C380.842 810.411 389.323 808.041 394.019 804.71C396.342 803.06 397.61 801.322 398.036 799.972C398.476 798.675 398.356 797.98 398.356 797.98L398.356 797.987ZM298.706 834.448C294.331 831.64 290.476 828.249 285.44 824.599C282.921 822.762 280.332 821.432 277.664 820.435C274.96 819.407 272.091 818.698 269.347 818.334C265.556 817.809 262.124 817.991 259.45 818.282C259.528 818.198 259.61 818.106 259.688 818.021C264.541 816.372 269.44 814.851 274.363 813.446C276.477 812.856 278.599 812.302 280.726 811.76C282.348 812.171 283.943 812.935 285.321 813.887C287.767 815.558 289.743 817.738 291.519 820.062C293.306 822.402 294.888 824.904 296.771 827.556C297.747 828.903 298.707 830.228 300.042 831.726C301.343 833.191 302.466 834.335 303.944 835.683C305.053 836.697 306.209 837.607 307.385 838.43C304.147 837.537 301.322 836.112 298.704 834.448L298.706 834.448Z" fill="#D0D0D0"/>
<path d="M367.977 515.7C369.633 504.199 376.651 494.475 383.438 485.072C384.94 482.989 386.495 480.835 387.955 478.709C395.148 468.233 402.498 452.968 396.663 439.735C390.901 426.668 375.269 421.798 361.476 417.501C360.273 417.127 359.079 416.754 357.903 416.381C336.309 409.525 319.068 399.361 306.657 386.177C291.993 370.594 284.366 350.109 286.256 331.377C288.384 310.311 302.959 292.019 321.704 286.89C329.917 284.643 338.581 284.849 346.96 285.046C351.366 285.152 355.923 285.258 360.357 285.009C372.528 284.321 387.177 279.312 391.78 267.308C394.127 261.182 393.422 254.376 392.736 247.795C392.098 241.656 391.438 235.305 393.181 229.356C397.854 213.41 418.348 206.868 434.556 210.767C446.955 213.749 457.81 220.997 468.308 228.006C471.427 230.089 474.654 232.244 477.863 234.245C495.709 245.379 511.253 248.87 524.065 244.619C535.38 240.863 545.046 230.874 552.795 214.929C554.809 210.783 556.653 206.446 558.436 202.253C562.173 193.463 566.039 184.373 571.708 176.489C586.716 155.621 614.563 143.491 646.201 144.047C674.571 144.547 701.617 154.09 727.776 163.318L727.458 164.22C701.375 155.016 674.4 145.498 646.185 145.003C614.861 144.452 587.311 156.432 572.486 177.047C566.879 184.845 563.034 193.886 559.318 202.627C557.53 206.831 555.682 211.179 553.659 215.345C545.793 231.531 535.94 241.687 524.371 245.525C511.278 249.871 495.463 246.347 477.363 235.056C474.141 233.045 470.908 230.888 467.782 228.801C457.353 221.838 446.569 214.637 434.337 211.698C418.556 207.903 398.623 214.2 394.102 229.627C392.411 235.397 393.062 241.651 393.689 247.699C394.385 254.394 395.103 261.314 392.674 267.652C386.676 283.293 366.466 285.623 360.413 285.966C355.94 286.218 351.364 286.11 346.94 286.005C338.63 285.808 330.039 285.606 321.96 287.814C303.588 292.84 289.299 310.793 287.211 331.475C285.348 349.935 292.878 370.14 307.356 385.523C319.653 398.59 336.76 408.668 358.196 415.473C359.372 415.846 360.563 416.218 361.765 416.591C375.753 420.949 391.606 425.886 397.542 439.352C403.554 452.99 396.078 468.578 388.745 479.253C387.28 481.389 385.721 483.546 384.217 485.633C377.499 494.943 370.549 504.571 368.928 515.837L367.982 515.702L367.977 515.7Z" fill="#D0D0D0"/>
<path d="M62.0348 914.304C62.0391 911.763 62.3846 909.143 63.0804 906.496C65.8611 895.899 73.9851 885.966 83.7758 881.187C101.082 872.744 121.698 875.264 139.663 878.289L142.36 878.747C160.117 881.759 178.477 884.872 195.465 879.396C216.241 872.698 230.563 854.739 244.412 837.374C246.796 834.387 249.257 831.299 251.697 828.343C264.271 813.11 289.552 788.507 317.581 794.915C330.055 797.768 340.077 806.217 349.768 814.391C356.158 819.781 362.768 825.354 370.067 829.34C390.144 840.308 417.615 839.215 440.046 826.559C464.604 812.704 479.169 789.183 487.063 771.891C497.5 749.027 502.587 724.49 506.902 701.319L507.842 701.494C503.516 724.725 498.415 749.329 487.932 772.291C479.978 789.711 465.296 813.412 440.514 827.393C417.801 840.209 389.969 841.301 369.608 830.179C362.224 826.145 355.578 820.542 349.151 815.12C339.106 806.648 329.616 798.646 317.367 795.847C289.838 789.553 264.867 813.887 252.433 828.951C250 831.9 247.538 834.985 245.16 837.968C231.221 855.445 216.809 873.516 195.759 880.305C178.548 885.854 160.071 882.721 142.203 879.689L139.508 879.234C121.687 876.233 101.25 873.728 84.1977 882.049C74.6453 886.711 66.7209 896.402 64.0069 906.74C61.9427 914.608 63.0558 922.202 67.1404 928.128L66.3521 928.671C63.489 924.517 62.028 919.58 62.0371 914.308L62.0348 914.304Z" fill="#D0D0D0"/>
</svg>
