<svg width="149" height="122" viewBox="0 0 149 122" fill="none" xmlns="http://www.w3.org/2000/svg">
<path d="M5.93673 9.91832L7.22584 8.49266L8.62517 7.14112L10.1114 5.89L11.6771 4.73258L13.3239 3.68214L15.0419 2.76511L16.8236 1.97477L18.6783 1.33113L20.5753 0.853755L22.5278 0.542785L24.5335 0.43136L26.493 0.525059L27.5809 0.655965L28.6165 0.846011L29.6399 1.09562L30.6645 1.40494L31.698 1.78068L32.7269 2.2227L33.8656 2.78526L35.009 3.43411L36.121 4.14895L37.2284 4.93007L38.3237 5.77075L39.4069 6.671L40.4761 7.61754L41.5274 8.63021L42.5647 9.68916L43.5881 10.7944L44.5976 11.9459L45.6101 13.1704L47.5105 15.638L49.3534 18.2774L50.1831 19.5862L50.5368 19.6298L51.584 19.8067L52.6517 20.0369L53.7456 20.3138L54.8659 20.6374L56.0619 21.0281L58.5918 21.9901L61.1213 23.151L63.5783 24.4704L65.9742 25.9351L68.3092 27.545L70.5605 29.2801L72.7397 31.1272L74.8467 33.0862L76.8666 35.1439L78.8166 37.2803L80.6852 39.5088L82.4612 41.796L84.1523 44.1486L85.7566 46.5534L86.4316 47.6549L87.7979 47.7158L89.7995 47.9758L91.7804 48.3815L93.7422 48.9461L95.6623 49.6496L97.5523 50.4788L99.4197 51.4404L101.242 52.5143L103.03 53.6873L104.8 54.9729L106.529 56.3509L108.228 57.8082L109.9 59.3581L111.541 60.9872L113.157 62.6758L114.75 64.437L116.311 66.2643L117.852 68.1444L119.366 70.0707L120.853 72.043L122.318 74.055L123.761 76.1065L125.183 78.1976L126.561 80.3082L127.947 82.4254L129.29 84.5754L130.633 86.7253C154.782 127.177 154.747 137.313 127.162 91.1657L125.897 89.0497L124.588 86.9532L123.286 84.8634L121.942 82.8062L120.598 80.7491L119.242 78.7516L117.857 76.7869L116.458 74.8685L115.045 72.9964L113.612 71.1771L112.167 69.4174L110.71 67.7173L109.242 66.09L107.764 64.5355L106.278 63.0672L104.783 61.6851L103.279 60.389L101.774 59.1859L100.27 58.0888L98.7592 57.0912L97.249 56.1997L95.7472 55.421L94.2344 54.7616L92.7223 54.2084L91.2203 53.7812L89.824 53.4945L90.0565 53.9347L91.2613 56.4546L92.3665 58.9802L93.3662 61.5178L94.2436 64.0409L95.012 66.5496L95.6639 69.0371L96.1787 71.4502L96.3842 72.5933L96.5548 73.7757L96.6922 75.0108L96.8082 76.2855L96.8834 77.6063L96.9214 78.9995L96.8756 81.7251L96.6185 84.5214L96.131 87.1959L95.7612 88.5915L95.3254 89.8935L94.8022 91.1415L94.1857 92.3422L93.4607 93.482L92.6238 94.5343L91.6673 95.4926L90.5627 96.3432L89.3372 97.0399L87.9852 97.5894L86.4953 97.9583L84.9388 98.1275L83.4875 98.1321L82.0704 97.991L80.6893 97.7177L79.3382 97.3188L78.0231 96.7875L76.7743 96.1508L75.5783 95.4085L74.4294 94.5673L73.3503 93.6472L72.3352 92.6548L71.3707 91.59L70.4795 90.4729L69.6407 89.2966L68.8618 88.068L68.1504 86.7936L67.4874 85.4799L66.8784 84.1204L66.3329 82.735L65.8509 81.3238L65.4248 79.8799L65.0639 78.4236L64.7607 76.9479L64.5151 75.4529L64.3423 73.9521L64.229 72.4453L64.1827 70.9391L64.2109 69.4404L64.3003 67.949L64.4643 66.465L64.7047 65.0017L65.0214 63.5591L65.4145 62.1373L65.8932 60.7561L66.4501 59.4089L67.0985 58.0959L67.8285 56.8434L68.6385 55.6381L69.5493 54.4871L70.5569 53.41L71.6537 52.4001L72.8474 51.4643L74.1338 50.6223L75.5054 49.8674L76.9907 49.2132L78.5572 48.666L80.2106 48.2192L80.6615 48.1378L79.7408 46.7484L78.1892 44.5896L76.5719 42.4898L74.8848 40.4689L73.1221 38.5334L71.303 36.6768L69.4252 34.9324L67.4869 33.2869L65.5033 31.7537L63.4762 30.346L61.3998 29.0704L59.2874 27.9271L57.1426 26.9426L54.9083 26.0899L54.006 25.7952L53.8038 25.7333L54.3359 26.767L55.7004 29.733L56.9286 32.7308L57.9919 35.7466L58.8717 38.7407L59.5679 41.7129L60.0444 44.643L60.2813 47.4312L60.313 48.8775L60.2747 50.2501L60.1716 51.5888L59.9981 52.9002L59.7481 54.191L59.4183 55.4344L59.0087 56.6306L58.5075 57.7927L57.9246 58.8942L57.2543 59.9417L56.4755 60.9284L55.6366 61.8149L55.0216 62.3722L54.4169 62.8566L53.8051 63.2879L53.1805 63.6726L52.5296 64.0106L51.7948 64.3212L50.527 64.6991L49.112 64.8765L47.7038 64.8019L46.3133 64.5086L44.9615 64.0035L43.7074 63.3269L42.5352 62.5119L41.4316 61.5584L40.4228 60.513L39.4763 59.3821L38.5977 58.159L37.7832 56.8636L37.0211 55.5091L36.3229 54.0823L35.6788 52.6097L35.0889 51.0912L34.5589 49.5202L34.0923 47.9234L33.6817 46.2941L33.3345 44.6388L33.0602 42.9777L32.8586 41.3108L32.7299 39.638L32.6699 37.9792L32.6922 36.3345L32.7965 34.7039L32.9924 33.1075L33.274 31.5518L33.6606 30.0304L34.1497 28.5763L34.7397 27.1765L35.4592 25.8443L36.2982 24.6062L37.2568 23.4622L38.3559 22.4193L39.5875 21.517L40.9515 20.7554L42.4631 20.1479L44.0857 19.7207L44.289 19.6897L43.3544 18.3466L41.5993 16.0663L40.7455 15.0292L39.8609 14.0116L38.9623 13.0404L38.0633 12.1155L37.173 11.2571L36.2706 10.4583L35.3811 9.70598L34.5022 9.0334L33.6321 8.42725L32.7767 7.88095L31.951 7.40791L31.1342 7.0013L30.4463 6.70882L29.7579 6.46275L29.0539 6.24968L28.3417 6.07633L27.6348 5.94282L26.9885 5.86302L25.4597 5.78715L24.0056 5.87125L22.5249 6.10762L21.0485 6.47669L19.5839 6.98517L18.1312 7.63307L16.7136 8.3941L15.3444 9.26839L14.0163 10.2492L12.7465 11.3169L11.5601 12.4585L10.4513 13.6804L9.42999 14.9564L8.50777 16.2732L7.69805 17.6309L6.99149 19.0097L6.41892 20.3899L5.97278 21.7648L5.65129 23.1211L5.47014 24.4258L5.43535 25.8249C5.39423 27.2771 4.13887 28.2521 2.64063 28.0041C1.1424 27.7561 -0.0387124 26.3706 0.00240949 24.9184L0.0554759 23.2542L0.305286 21.4594L0.719431 19.6928L1.27869 17.9609L1.99471 16.2506L2.84421 14.5882L3.8138 12.9734L4.90346 11.4064L6.10335 9.91345L5.93673 9.91832ZM73.3068 59.3488L72.6818 60.2841L72.1098 61.2663L71.6102 62.2891L71.1712 63.3656L70.7835 64.4758L70.4606 65.6198L70.2024 66.7977L70.0013 68.0027L69.8631 69.2283L69.7879 70.4745L69.7681 71.7345L69.8019 72.9951L69.8968 74.2629L70.0378 75.5246L70.2364 76.7671L70.4887 78.01L70.791 79.227L71.1433 80.418L71.5458 81.583L71.9907 82.7153L72.4687 83.7949L72.9893 84.8417L73.543 85.8358L74.128 86.764L74.7538 87.6461L75.3975 88.4621L76.065 89.2054L76.7564 89.876L77.4657 90.4805L78.1777 91.0054L78.9136 91.4576L79.6675 91.8436L80.4241 92.1501L81.2046 92.3839L82.0164 92.5516L82.8444 92.64L83.7078 92.6425L84.6451 92.5463L85.4419 92.3491L86.1785 92.0518L86.8508 91.6742L87.4573 91.2031L88.0304 90.6321L88.5643 89.9678L89.0457 89.2102L89.4803 88.3525L89.8717 87.4214L90.2007 86.4234L90.4685 85.418L90.9022 83.0945L91.1221 80.7224L91.1648 78.2753L91.1317 77.1209L91.0643 75.9594L90.9678 74.8308L90.844 73.7484L90.7022 72.7321L90.5401 71.8151L90.071 69.5948L89.4929 67.36L88.7947 65.0776L87.9933 62.7742L87.0906 60.4631L86.0789 58.1376L84.9734 55.811L83.7701 53.5034L83.7344 53.4367L83.4834 53.4606L82.1059 53.7179L80.8135 54.0624L79.6046 54.4807L78.4925 54.9731L77.4504 55.5391L76.4783 56.1788L75.5878 56.8791L74.7598 57.6463L73.9925 58.4673L73.2992 59.3421L73.3068 59.3488ZM40.7531 28.2217L40.1653 29.0844L39.6492 30.0341L39.2067 31.084L38.8267 32.2009L38.5224 33.3849L38.2882 34.6427L38.128 35.9543L38.0401 37.3064L38.0246 38.6991L38.0661 40.119L38.1765 41.5528L38.348 42.9939L38.5865 44.4357L38.8827 45.8583L39.2365 47.2615L39.6404 48.6388L40.085 49.97L40.5761 51.2487L41.1062 52.4681L41.6735 53.615L42.2704 54.6825L42.8893 55.6641L43.5134 56.5329L44.15 57.2958L44.786 57.9526L45.385 58.4829L45.9799 58.8805L46.5279 59.1781L47.0217 59.3691L47.5164 59.4672L48.0216 59.4924L48.5488 59.4317L49.2424 59.2135L49.4887 59.1034L49.8333 58.9279L50.1977 58.6996L50.5836 58.4318L50.9701 58.1175L51.353 57.7767L51.9708 57.1398L52.4913 56.4754L52.957 55.7507L53.3696 54.9791L53.7215 54.1537L54.0186 53.2681L54.2626 52.3354L54.4536 51.3558L54.5838 50.3225L54.6686 49.2489L54.6944 48.1349L54.6742 47.027L54.4664 44.5574L54.0562 42.026L53.4385 39.3929L52.653 36.7049L51.6955 33.982L50.5755 31.2441L49.3232 28.5181L47.944 25.8437L47.3693 24.8428L46.9365 24.8581L45.7686 25.0314L44.7086 25.312L43.7624 25.6934L42.8973 26.1817L42.104 26.7569L41.39 27.4259L40.7438 28.2017L40.7531 28.2217Z" fill="black"/>
</svg>
