<svg width="1322" height="840" viewBox="0 0 1322 840" fill="none" xmlns="http://www.w3.org/2000/svg">
<path d="M1136.32 125.632C1134.3 125.917 1133.08 127.24 1131.81 128.547C1131.63 128.168 1131.83 127.977 1131.93 127.774C1133.2 125.336 1135.22 123.807 1137.81 122.956C1139.96 122.242 1142.18 121.907 1144.44 122.024C1148.01 122.211 1151.36 123.14 1154.11 125.504C1156.9 127.903 1158.64 130.942 1158.94 134.668C1159.33 139.396 1157.83 143.55 1154.75 147.073C1152.07 150.14 1148.62 151.868 1144.44 151.989C1141.03 152.086 1137.85 151.384 1134.98 149.527C1131.56 147.311 1129.64 144.104 1129.12 140.121C1128.62 136.384 1129.71 133.037 1131.98 130.049C1133.14 128.531 1134.43 127.142 1135.95 125.976C1136.05 125.898 1136.14 125.804 1136.32 125.632ZM1143.08 149.004C1143.85 148.938 1144.62 148.891 1145.38 148.805C1145.86 148.751 1146.32 148.649 1146.79 148.54C1149.44 147.9 1151.65 146.59 1153.25 144.346C1154.64 142.396 1155.46 140.223 1155.84 137.87C1156.11 136.197 1155.88 134.558 1155.22 133.037C1153.97 130.169 1151.88 128.055 1148.96 126.834C1145.82 125.515 1142.51 125.11 1139.11 125.149C1137.85 125.164 1136.92 125.714 1136.06 126.537C1134.73 127.809 1133.54 129.194 1132.56 130.755C1131.27 132.822 1130.48 135.038 1130.52 137.519C1130.57 140.933 1131.94 143.718 1134.49 145.942C1136.95 148.072 1139.84 149 1143.08 149.008L1143.08 149.004Z" fill="black"/>
<path d="M1178.32 125.632C1176.3 125.917 1175.08 127.24 1173.81 128.547C1173.63 128.168 1173.83 127.977 1173.93 127.774C1175.2 125.336 1177.22 123.807 1179.81 122.956C1181.96 122.242 1184.18 121.907 1186.44 122.024C1190.01 122.211 1193.36 123.14 1196.11 125.504C1198.9 127.903 1200.64 130.942 1200.94 134.668C1201.33 139.396 1199.83 143.55 1196.75 147.073C1194.07 150.14 1190.62 151.868 1186.44 151.989C1183.03 152.086 1179.85 151.384 1176.98 149.527C1173.56 147.311 1171.64 144.104 1171.12 140.121C1170.62 136.384 1171.71 133.037 1173.98 130.049C1175.14 128.531 1176.43 127.142 1177.95 125.976C1178.05 125.898 1178.14 125.804 1178.32 125.632ZM1185.08 149.004C1185.85 148.938 1186.62 148.891 1187.38 148.805C1187.86 148.751 1188.32 148.649 1188.79 148.54C1191.44 147.9 1193.65 146.59 1195.25 144.346C1196.64 142.396 1197.46 140.223 1197.84 137.87C1198.11 136.197 1197.88 134.558 1197.22 133.037C1195.97 130.169 1193.88 128.055 1190.96 126.834C1187.82 125.515 1184.51 125.11 1181.11 125.149C1179.85 125.164 1178.92 125.714 1178.06 126.537C1176.73 127.809 1175.54 129.194 1174.56 130.755C1173.27 132.822 1172.48 135.038 1172.52 137.519C1172.57 140.933 1173.94 143.718 1176.49 145.942C1178.95 148.072 1181.84 149 1185.08 149.008L1185.08 149.004Z" fill="black"/>
<path d="M66.729 125.761L62.8615 135.125L74.3403 142.267L83.6468 134.97L78.5049 125.271L66.729 125.761Z" fill="black"/>
<path d="M66.729 125.761L78.5049 125.271L72 113L66.729 125.761Z" fill="black"/>
<path d="M78.5049 125.271L83.6468 134.97L97 124.5L78.5049 125.271Z" fill="black"/>
<path d="M83.6468 134.97L74.3403 142.267L94 154.5L83.6468 134.97Z" fill="black"/>
<path d="M74.3403 142.267L62.8615 135.125L53 159L74.3403 142.267Z" fill="black"/>
<path d="M62.8615 135.125L66.729 125.761L49 126.5L62.8615 135.125Z" fill="black"/>
<path d="M66.729 125.761L62.8615 135.125M66.729 125.761L78.5049 125.271M66.729 125.761L49 126.5L62.8615 135.125M66.729 125.761L72 113L78.5049 125.271M62.8615 135.125L74.3403 142.267M62.8615 135.125L53 159L74.3403 142.267M74.3403 142.267L83.6468 134.97M74.3403 142.267L94 154.5L83.6468 134.97M83.6468 134.97L78.5049 125.271M83.6468 134.97L97 124.5L78.5049 125.271" stroke="black" stroke-width="2"/>
<path d="M229 636L228.13 637.429M228.13 637.429C227.121 650.509 223.773 654.938 215 659C225.541 658.117 229.266 663.683 229 682C229.175 665.605 232.087 660.354 243 659C233.514 654.978 230.21 650.453 228.13 637.429Z" stroke="black" stroke-width="2"/>
<path d="M275.196 1.63617C119.813 5.38095 30.7021 10.9981 12.7302 18.4877L0 23.7304V164.16C0 241.676 7.86275 582.451 7.86275 582.451C7.11392 582.451 14.5721 299.909 1.84195 296.539C9.28425 321.629 9.37793 338.198 8.30025 544.629C8.30025 558.672 7.48834 563.353 7.86275 582.451C7.86275 593.686 9.36041 642.368 10.4837 690.675C13.479 790.661 14.6022 795.529 40.8114 803.393C49.4229 806.014 57.2857 811.257 59.9066 816.5C69.6415 834.1 86.4903 838.219 155.383 839.717C239.627 841.59 672.452 833.726 758.194 828.858C795.261 826.611 931.923 823.615 1061.47 822.491C1307.46 819.87 1308.96 819.496 1317.57 803.768C1322.81 793.657 1323.19 764.447 1319.82 422.175C1317.57 194.492 1315.7 104.992 1312.7 100.498C1310.08 97.5025 1301.1 93.7577 1292.49 92.6342C1278.63 90.7619 1276.39 88.8895 1273.77 79.1531C1271.52 70.9146 1267.4 66.4208 1259.91 63.7995C1238.94 57.0589 745.463 61.5526 550.392 70.1656C538.411 70.9145 537.288 70.1656 535.416 57.8078C532.046 38.7095 529.425 35.7137 512.576 33.0923C500.22 30.8455 496.102 28.2241 491.609 18.1132C488.239 11.3726 482.248 5.00652 477.755 3.88309C459.035 -0.610647 401.375 -0.985176 275.196 1.63617ZM476.632 13.9939C484.495 18.8621 485.993 23.7304 487.49 42.8288C489.737 75.0339 494.23 78.4041 534.667 78.4041C552.639 78.4041 648.864 75.7828 748.833 73.1614C954.762 67.5443 1230.71 65.6718 1251.3 70.1656C1259.54 71.6635 1265.9 75.7828 1267.03 79.5275C1267.77 82.8978 1270.02 239.43 1271.14 427.043C1274.14 812.381 1277.14 777.554 1242.31 782.422C1231.46 784.295 1155.82 785.044 1074.58 785.044C993.327 785.044 879.505 786.167 821.845 788.414C764.184 790.286 669.831 793.282 612.171 795.155C491.983 799.274 200.687 804.891 131.046 804.516C67.3951 804.142 43.4323 800.772 30.7021 789.912L20.5929 781.299L18.3464 669.33C15.7255 561.106 27.9774 527.592 35.0913 521.226C39.2099 517.856 32.1998 544.629 33.6975 544.629C35.1951 544.629 36.6928 560.357 37.0672 579.455C38.1904 646.861 45.3044 759.205 48.6741 765.945C55.0392 777.554 76.7555 780.55 188.332 785.044C274.073 788.414 312.263 788.414 377.412 784.669C483.372 778.303 617.413 774.558 915.449 769.316C1208.62 764.447 1232.58 763.324 1244.19 754.336C1252.05 747.97 1252.42 744.975 1252.42 689.926C1252.05 532.271 1245.31 169.777 1242.69 165.657C1238.57 159.291 575.853 159.291 475.509 165.657C439.565 168.279 352.7 171.649 282.685 173.896C67.0207 180.637 41.1858 182.134 35.1951 190.747C31.0765 195.99 29.9533 212.842 29.9533 260.775L36.3738 524.082L16.8581 586.295L7.48834 169.402V27.8496L17.972 23.7304C36.3184 16.6153 295.789 5.38095 406.616 6.87886C455.29 7.62782 469.144 9.12571 476.632 13.9939ZM1239.69 344.283C1240.82 440.899 1243.06 570.093 1244.94 630.759C1247.18 727 1246.81 742.353 1241.94 748.719C1236.7 755.834 1231.08 756.209 1156.2 757.332C874.637 760.703 538.036 769.316 385.275 777.18C273.324 782.797 83.8693 777.554 64.774 768.567C55.0392 764.073 53.9159 761.452 51.6695 737.485C50.1718 722.88 47.5509 671.951 45.3044 624.018V530.123C62.5996 262.004 54.1817 392.503 45.3044 530.123L38.5649 266.017C37.816 227.446 38.5649 195.99 40.4369 193.369C43.0579 189.25 74.8834 187.377 187.583 184.756C266.585 182.509 389.393 178.015 460.532 174.27C566.867 168.653 646.992 167.53 913.577 167.904L1237.45 168.279L1239.69 344.283Z" fill="black"/>
<path d="M599.957 127.98C455.458 129.842 190.418 136.546 179.562 138.408C178.813 138.78 178.813 148.464 179.562 160.009L180.685 181.611L219.991 182.728C255.555 184.218 446.848 179.376 607.445 173.417C642.633 172.3 776.651 170.81 906.176 170.437C1035.33 170.065 1142.02 168.575 1143.89 167.086C1145.39 165.596 1131.54 164.851 1112.82 165.223C1094.47 165.968 1016.61 165.968 940.242 165.223C805.85 164.106 595.84 168.203 386.578 176.024C331.174 178.259 263.042 179.748 236.088 179.748H186.3V162.989C186.3 147.346 186.674 146.601 198.653 144.739C222.612 141.015 475.673 133.566 614.932 132.449C693.171 131.704 839.916 129.842 940.617 128.352L1124.05 125L957.463 125.372C865.747 125.372 705.15 126.49 599.957 127.98Z" fill="black"/>
<path d="M717.007 127.565C851.773 125.318 1099.05 124.301 1109.23 125.758C1109.93 126.089 1110.21 135.231 1109.83 146.151L1109.39 166.575L1072.78 168.719C1039.66 171.111 861.19 171.842 711.302 170.667C678.465 170.588 553.481 172.896 432.717 176.134C312.302 179.362 212.796 180.912 211.009 179.558C209.571 178.193 222.463 177.106 239.924 176.938C257.046 177.133 329.637 174.975 400.812 172.156C526.071 167.376 721.975 165.423 917.284 167.007C968.999 167.581 1032.56 167.099 1057.69 166.352L1104.1 164.973L1103.63 149.151C1103.19 134.384 1102.82 133.691 1091.6 132.265C1069.16 129.413 833.031 129.394 703.172 132.199C630.211 133.664 493.351 135.973 399.428 137.358L228.325 139.277L383.64 135.012C469.144 132.47 618.896 129.074 717.007 127.565Z" fill="black"/>
</svg>
